<svg xmlns="http://www.w3.org/2000/svg" fill="none" viewBox="3.51 10.22 84.55 19.78"><path fill="#1f1f1f" d="M3.606 22.83q-.309-2.206.347-3.979.682-1.776 2.155-2.887 1.499-1.116 3.578-1.407 2.663-.374 4.633.772 1.995 1.143 2.91 3.6l-4.616.647q-.81-1.541-2.484-1.306-1.193.167-1.77 1.205-.583 1.012-.34 2.736.24 1.724 1.083 2.564.838.813 2.03.646 1.673-.235 2.029-1.94l4.615-.647q-.21 2.564-1.81 4.236-1.602 1.673-4.24 2.042-2.077.292-3.826-.368-1.722-.663-2.866-2.184-1.119-1.524-1.428-3.73M32.295 14.73l.64 14.273-4.374.196-.087-1.944q-.623.976-1.748 1.617-1.1.612-2.482.675-1.636.073-2.922-.587-1.287-.686-2.04-2.036-.752-1.35-.836-3.218l-.374-8.339 4.349-.195.347 7.751q.065 1.433.842 2.192t2.03.704q1.28-.057 1.986-.884.706-.826.642-2.259l-.347-7.75zM37.8 16.709a5.65 5.65 0 0 1 1.584-2.14 4.9 4.9 0 0 1 2.41-1.11l.774 4.57-1.186.201q-1.615.275-2.304 1.118-.692.82-.397 2.561l1.11 6.539-4.317.732-2.39-14.087 4.317-.732zM42.133 20.773q.311-2.18 1.357-3.712 1.072-1.53 2.617-2.214 1.547-.684 3.296-.435 1.495.213 2.524.98 1.054.771 1.521 1.847l.286-2.003 4.334.618L56.053 30l-4.335-.618.286-2.002q-.775.898-2.002 1.344-1.203.45-2.698.236a5.87 5.87 0 0 1-3.017-1.335q-1.29-1.116-1.891-2.882-.574-1.79-.262-3.97m10.592 1.536q.232-1.623-.547-2.69a2.91 2.91 0 0 0-2.046-1.25q-1.293-.183-2.34.624-1.017.786-1.248 2.409t.518 2.712q.78 1.069 2.072 1.252a2.91 2.91 0 0 0 2.314-.627q1.046-.809 1.277-2.43M57.938 22.863q-.13-2.199.591-3.908.746-1.711 2.125-2.69 1.38-.98 3.142-1.083 1.406-.083 2.591.438 1.21.519 1.934 1.477l-.39-6.62 4.372-.258 1.112 18.916-4.371.257-.12-2.045q-.554 1.059-1.668 1.74-1.09.68-2.597.768-1.764.103-3.248-.707-1.486-.835-2.427-2.448-.917-1.64-1.046-3.837m10.686-.603q-.096-1.636-1.072-2.527a2.91 2.91 0 0 0-2.254-.817q-1.303.077-2.168 1.076-.84.974-.744 2.61t1.048 2.554q.975.892 2.28.815a2.91 2.91 0 0 0 2.142-1.075q.865-1 .768-2.636M88.056 21.68q0 .615-.076 1.28h-9.91q.102 1.331.845 2.049.768.69 1.87.69 1.638 0 2.278-1.382h4.66a6.3 6.3 0 0 1-1.305 2.535 6.36 6.36 0 0 1-2.33 1.767q-1.41.64-3.15.64-2.1 0-3.739-.896a6.37 6.37 0 0 1-2.56-2.56q-.922-1.665-.922-3.893t.896-3.892a6.37 6.37 0 0 1 2.56-2.56q1.64-.897 3.765-.897 2.074 0 3.687.87a6.17 6.17 0 0 1 2.51 2.485q.921 1.613.921 3.764m-4.48-1.153q0-1.125-.769-1.792-.768-.666-1.92-.666-1.101 0-1.87.64-.743.64-.921 1.818z"/></svg>