<svg width="30" height="33" viewBox="0 0 30 33" fill="none" xmlns="http://www.w3.org/2000/svg">
<path d="M21.553 19.1021C20.9617 18.745 20.2022 18.7379 19.6908 19.2022C18.2462 20.5137 17.464 22.4369 16.8633 25.4506C16.718 26.1797 15.5101 26.1776 15.3648 25.4485C14.225 19.7318 12.431 17.9398 6.70089 16.8028C5.97102 16.658 5.97103 15.4467 6.70091 15.3019C12.4312 14.1649 14.2249 12.3726 15.3648 6.65508C15.5102 5.92606 16.718 5.92412 16.8633 6.65314C17.4105 9.39821 18.1083 11.2386 19.3197 12.5361C19.8193 13.0711 20.6313 13.0899 21.2579 12.7115L29.2379 7.89271C29.5417 7.70926 29.6372 7.31158 29.4367 7.01875C26.5359 2.78203 21.6513 0 16.1143 0C7.21449 0 0 7.18689 0 16.0526C0 24.9184 7.21449 32.1053 16.1143 32.1053C21.8014 32.1053 26.8003 29.1704 29.6683 24.7382C29.8577 24.4455 29.7593 24.0574 29.4609 23.8772L21.553 19.1021Z" fill="url(#paint0_linear_118_128)"/>
<defs>
<linearGradient id="paint0_linear_118_128" x1="4.72603" y1="5.28315" x2="24.5741" y2="32.3174" gradientUnits="userSpaceOnUse">
<stop stop-color="#20AF76"/>
</linearGradient>
</defs>
</svg>
