<svg width="122" height="41" viewBox="0 0 122 41" fill="none" xmlns="http://www.w3.org/2000/svg">
<path d="M36.6062 22.8303C36.3999 21.3596 36.5156 20.0333 36.9532 18.8515C37.4077 17.6673 38.126 16.7047 39.1081 15.9637C40.107 15.2203 41.2996 14.7514 42.6859 14.557C44.4609 14.3081 46.0053 14.5656 47.3191 15.3294C48.6497 16.0909 49.6195 17.2909 50.2285 18.9292L45.6134 19.5764C45.0728 18.549 44.2447 18.1135 43.1289 18.2699C42.3344 18.3814 41.7443 18.783 41.3587 19.4749C40.9707 20.1498 40.8572 21.0621 41.0184 22.2116C41.1796 23.3612 41.5408 24.2155 42.1018 24.7747C42.6605 25.3169 43.3371 25.5323 44.1317 25.4209C45.2474 25.2644 45.9238 24.6179 46.1609 23.4815L50.7761 22.8343C50.6365 24.5432 50.0329 25.9551 48.9654 27.0701C47.8979 28.1851 46.485 28.8659 44.7269 29.1124C43.3407 29.3068 42.0651 29.184 40.9002 28.7441C39.7522 28.3017 38.7968 27.5738 38.0342 26.5603C37.2884 25.5444 36.8124 24.3011 36.6062 22.8303Z" fill="#1F1F1F"/>
<path d="M65.2949 14.7296L65.9349 29.0034L61.5607 29.1995L61.4735 27.2554C61.0584 27.9063 60.4759 28.445 59.7261 28.8717C58.9926 29.2805 58.1654 29.5056 57.2445 29.5468C56.1531 29.5958 55.1788 29.4002 54.3218 28.9602C53.464 28.5031 52.7842 27.8245 52.2825 26.9242C51.7808 26.024 51.502 24.9514 51.4462 23.7065L51.0723 15.3673L55.4209 15.1723L55.7684 22.9232C55.8113 23.8782 56.0918 24.6089 56.61 25.1154C57.1283 25.6219 57.8052 25.8564 58.6409 25.8189C59.4935 25.7807 60.1553 25.4861 60.6261 24.9353C61.097 24.3845 61.311 23.6316 61.2682 22.6766L60.9207 14.9258L65.2949 14.7296Z" fill="#1F1F1F"/>
<path d="M70.7993 16.7085C71.1728 15.8486 71.7012 15.1357 72.3843 14.5696C73.0645 13.9867 73.8675 13.6167 74.7932 13.4597L75.5684 18.0291L74.3818 18.2304C73.3047 18.4131 72.5368 18.7858 72.0782 19.3484C71.6167 19.8942 71.4845 20.7477 71.6815 21.909L72.7908 28.4475L68.4739 29.1799L66.084 15.0931L70.4009 14.3607L70.7993 16.7085Z" fill="#1F1F1F"/>
<path d="M75.1329 20.773C75.3401 19.3196 75.7924 18.0822 76.4898 17.0608C77.2041 16.0418 78.0766 15.3041 79.1073 14.8475C80.138 14.3909 81.2364 14.2457 82.4025 14.412C83.3995 14.5541 84.241 14.881 84.9267 15.3926C85.6294 15.9066 86.1366 16.5221 86.4482 17.239L86.7337 15.2363L91.0685 15.8543L89.052 29.9994L84.7172 29.3815L85.0027 27.3788C84.4862 27.9777 83.8189 28.4257 83.0005 28.7229C82.1991 29.0225 81.2999 29.1012 80.3028 28.9591C79.1536 28.7952 78.148 28.3501 77.2859 27.6237C76.4263 26.8804 75.7959 25.9198 75.3948 24.7418C75.013 23.5493 74.9257 22.2264 75.1329 20.773ZM85.7254 22.3089C85.8796 21.2273 85.6971 20.3305 85.1779 19.6185C84.6755 18.9089 83.9934 18.4926 83.1315 18.3698C82.2696 18.2469 81.4899 18.4547 80.7924 18.9933C80.1141 19.5174 79.6979 20.3202 79.5437 21.4018C79.3896 22.4834 79.5624 23.3874 80.0624 24.1139C80.5816 24.826 81.2722 25.2434 82.1341 25.3663C82.996 25.4891 83.7672 25.2801 84.4479 24.7391C85.1454 24.2006 85.5713 23.3905 85.7254 22.3089Z" fill="#1F1F1F"/>
<path d="M90.9381 22.8628C90.8519 21.3973 91.0489 20.0946 91.5292 18.9549C92.0264 17.8142 92.7346 16.9175 93.6539 16.265C94.5731 15.6124 95.6207 15.2516 96.7965 15.1825C97.7338 15.1274 98.5974 15.2733 99.3873 15.6202C100.194 15.966 100.839 16.4583 101.321 17.0968L100.932 10.4763L105.303 10.2194L106.415 29.1351L102.044 29.3921L101.923 27.3471C101.554 28.0528 100.999 28.6327 100.256 29.0867C99.53 29.5398 98.6644 29.7959 97.659 29.855C96.4832 29.9241 95.4006 29.6885 94.4112 29.1481C93.4208 28.5908 92.6119 27.7748 91.9844 26.7001C91.373 25.6075 91.0242 24.3284 90.9381 22.8628ZM101.624 22.2603C101.56 21.1697 101.203 20.3271 100.552 19.7327C99.9189 19.1372 99.1676 18.865 98.2985 18.9161C97.4294 18.9672 96.7066 19.326 96.1302 19.9926C95.5698 20.6411 95.3217 21.5107 95.3858 22.6014C95.4499 23.692 95.7992 24.5436 96.4337 25.1561C97.0843 25.7505 97.8441 26.0222 98.7132 25.9711C99.5823 25.9201 100.297 25.5617 100.856 24.8961C101.432 24.2296 101.689 23.3509 101.624 22.2603Z" fill="#1F1F1F"/>
<path d="M121.056 21.6797C121.056 22.0894 121.031 22.5161 120.979 22.96H111.07C111.138 23.8477 111.42 24.5305 111.915 25.0085C112.427 25.4694 113.05 25.6998 113.784 25.6998C114.877 25.6998 115.636 25.2389 116.063 24.3171H120.723C120.484 25.256 120.049 26.101 119.418 26.8521C118.803 27.6032 118.026 28.1921 117.087 28.6189C116.148 29.0457 115.099 29.259 113.938 29.259C112.538 29.259 111.292 28.9603 110.199 28.3628C109.107 27.7654 108.253 26.9118 107.639 25.8022C107.024 24.6927 106.717 23.3953 106.717 21.9101C106.717 20.425 107.016 19.1276 107.613 18.018C108.228 16.9084 109.081 16.0549 110.174 15.4574C111.266 14.86 112.521 14.5612 113.938 14.5612C115.321 14.5612 116.55 14.8514 117.625 15.4318C118.701 16.0122 119.537 16.8402 120.134 17.9156C120.749 18.9911 121.056 20.2458 121.056 21.6797ZM116.575 20.5274C116.575 19.7763 116.319 19.1788 115.807 18.735C115.295 18.2912 114.655 18.0692 113.887 18.0692C113.153 18.0692 112.53 18.2826 112.017 18.7094C111.522 19.1362 111.215 19.7422 111.096 20.5274H116.575Z" fill="#1F1F1F"/>
<path d="M21.553 25.1563C20.9617 24.7992 20.2022 24.7921 19.6908 25.2564C18.2462 26.5679 17.464 28.4911 16.8633 31.5048C16.718 32.2339 15.5101 32.2318 15.3648 31.5027C14.225 25.786 12.431 23.994 6.70089 22.857C5.97102 22.7122 5.97103 21.5009 6.70091 21.3561C12.4312 20.2191 14.2249 18.4268 15.3649 12.7093C15.5102 11.9803 16.718 11.9783 16.8633 12.7073C17.4105 15.4524 18.1083 17.2928 19.3197 18.5903C19.8193 19.1253 20.6313 19.1441 21.2579 18.7657L29.2379 13.9469C29.5417 13.7635 29.6372 13.3658 29.4367 13.0729C26.5359 8.83622 21.6513 6.0542 16.1143 6.0542C7.21449 6.0542 0 13.2411 0 22.1068C0 30.9726 7.21449 38.1595 16.1143 38.1595C21.8014 38.1595 26.8003 35.2246 29.6683 30.7924C29.8577 30.4997 29.7593 30.1116 29.4609 29.9314L21.553 25.1563Z" fill="url(#paint0_linear_39_4)"/>
<defs>
<linearGradient id="paint0_linear_39_4" x1="4.72603" y1="11.3373" x2="24.5741" y2="38.3716" gradientUnits="userSpaceOnUse">
<stop stop-color="#20AF76"/>
</linearGradient>
</defs>
</svg>
