<svg width="191" height="46" viewBox="0 0 191 46" fill="none" xmlns="http://www.w3.org/2000/svg">
<rect x="0.5" y="0.5" width="190" height="45" rx="14.5" stroke="#3F444C"/>
<path d="M29.32 29.16C28.4987 29.16 27.7467 29.016 27.064 28.728C26.3813 28.4293 25.7893 28.0133 25.288 27.48C24.7867 26.9467 24.392 26.3173 24.104 25.592C23.8267 24.8667 23.688 24.0667 23.688 23.192C23.688 22.04 23.928 21.0213 24.408 20.136C24.888 19.2507 25.5493 18.5627 26.392 18.072C27.2453 17.5707 28.216 17.32 29.304 17.32C30.4133 17.32 31.3893 17.5707 32.232 18.072C33.0747 18.5627 33.736 19.2507 34.216 20.136C34.7067 21.0213 34.952 22.0453 34.952 23.208C34.952 24.072 34.808 24.872 34.52 25.608C34.2427 26.3333 33.8533 26.9627 33.352 27.496C32.8507 28.0187 32.2533 28.4293 31.56 28.728C30.8773 29.016 30.1307 29.16 29.32 29.16ZM29.304 27.72C30.072 27.72 30.7493 27.528 31.336 27.144C31.9227 26.7493 32.3813 26.2107 32.712 25.528C33.0533 24.8453 33.224 24.0613 33.224 23.176C33.224 22.3013 33.0587 21.5333 32.728 20.872C32.3973 20.2 31.9387 19.6827 31.352 19.32C30.7653 18.9467 30.0827 18.76 29.304 18.76C28.5253 18.76 27.8427 18.9467 27.256 19.32C26.68 19.6827 26.2267 20.1947 25.896 20.856C25.576 21.5173 25.416 22.2907 25.416 23.176C25.416 24.072 25.5813 24.8613 25.912 25.544C26.2427 26.2267 26.696 26.76 27.272 27.144C27.8587 27.528 28.536 27.72 29.304 27.72ZM40.2806 29.16C39.3313 29.16 38.6326 28.9413 38.1846 28.504C37.7473 28.056 37.5286 27.4 37.5286 26.536V18.968L39.1766 18.344V26.552C39.1766 26.9787 39.2886 27.2933 39.5126 27.496C39.7366 27.6987 40.0993 27.8 40.6006 27.8C40.7926 27.8 40.9633 27.784 41.1126 27.752C41.262 27.72 41.39 27.6827 41.4966 27.64V28.984C41.3793 29.0373 41.214 29.08 41.0006 29.112C40.7873 29.144 40.5473 29.16 40.2806 29.16ZM35.8966 22.168V20.84H41.4966V22.168H35.8966ZM43.0743 29V17.48H44.7383V29H43.0743ZM48.8663 29V23.752C48.8663 23.1867 48.7223 22.7653 48.4343 22.488C48.1569 22.2107 47.7409 22.072 47.1863 22.072C46.7063 22.072 46.2796 22.1787 45.9062 22.392C45.5436 22.6053 45.2556 22.8987 45.0423 23.272C44.8396 23.6453 44.7383 24.088 44.7383 24.6L44.5303 22.648C44.7969 22.04 45.2076 21.56 45.7623 21.208C46.3169 20.856 46.9623 20.68 47.6983 20.68C48.5729 20.68 49.2609 20.9253 49.7623 21.416C50.2636 21.9067 50.5143 22.5573 50.5143 23.368V29H48.8663ZM56.2974 29.16C55.476 29.16 54.7507 28.9787 54.1214 28.616C53.5027 28.2533 53.0174 27.752 52.6654 27.112C52.3134 26.472 52.1374 25.736 52.1374 24.904C52.1374 24.0613 52.308 23.3253 52.6494 22.696C53.0014 22.056 53.492 21.56 54.1214 21.208C54.7507 20.856 55.4707 20.68 56.2814 20.68C57.0707 20.68 57.7534 20.8507 58.3294 21.192C58.916 21.5227 59.364 21.9867 59.6734 22.584C59.9934 23.1813 60.1534 23.8907 60.1534 24.712C60.1534 24.84 60.148 24.9627 60.1374 25.08C60.1374 25.1867 60.1267 25.2987 60.1054 25.416H53.2574V24.168H58.9374L58.5214 24.664C58.5214 23.7893 58.324 23.1227 57.9294 22.664C57.5347 22.2053 56.9854 21.976 56.2814 21.976C55.524 21.976 54.9214 22.2373 54.4734 22.76C54.036 23.272 53.8174 23.9867 53.8174 24.904C53.8174 25.832 54.036 26.5573 54.4734 27.08C54.9214 27.6027 55.54 27.864 56.3294 27.864C56.8094 27.864 57.2254 27.768 57.5774 27.576C57.9294 27.3733 58.1907 27.08 58.3614 26.696H59.9294C59.6627 27.464 59.2094 28.0667 58.5694 28.504C57.94 28.9413 57.1827 29.16 56.2974 29.16ZM61.8555 29V20.84H63.4395V22.872H63.5195V29H61.8555ZM63.5195 24.744L63.3115 22.808C63.5035 22.1147 63.8342 21.5867 64.3035 21.224C64.7728 20.8613 65.3328 20.68 65.9835 20.68C66.2288 20.68 66.3995 20.7013 66.4955 20.744V22.312C66.4422 22.2907 66.3675 22.28 66.2715 22.28C66.1755 22.2693 66.0582 22.264 65.9195 22.264C65.1195 22.264 64.5168 22.472 64.1115 22.888C63.7168 23.304 63.5195 23.9227 63.5195 24.744ZM71.1528 29V17.48H76.0328C76.8648 17.48 77.5741 17.6187 78.1608 17.896C78.7474 18.1733 79.1954 18.568 79.5048 19.08C79.8248 19.592 79.9848 20.2 79.9848 20.904C79.9848 21.6187 79.8248 22.2373 79.5048 22.76C79.1954 23.272 78.7421 23.672 78.1448 23.96C77.5581 24.248 76.8541 24.392 76.0328 24.392H72.4488V22.984H75.9528C76.7101 22.984 77.2861 22.8027 77.6808 22.44C78.0861 22.0773 78.2888 21.5707 78.2888 20.92C78.2888 20.2587 78.0914 19.752 77.6968 19.4C77.3021 19.048 76.7208 18.872 75.9528 18.872H72.8488V29H71.1528ZM81.7149 29V20.84H83.2989V22.872H83.3789V29H81.7149ZM83.3789 24.744L83.1709 22.808C83.3629 22.1147 83.6935 21.5867 84.1629 21.224C84.6322 20.8613 85.1922 20.68 85.8429 20.68C86.0882 20.68 86.2589 20.7013 86.3549 20.744V22.312C86.3015 22.2907 86.2269 22.28 86.1309 22.28C86.0349 22.2693 85.9175 22.264 85.7789 22.264C84.9789 22.264 84.3762 22.472 83.9709 22.888C83.5762 23.304 83.3789 23.9227 83.3789 24.744ZM91.345 29.16C90.513 29.16 89.7823 28.9787 89.153 28.616C88.5237 28.2427 88.033 27.736 87.681 27.096C87.329 26.4453 87.153 25.7093 87.153 24.888C87.153 24.056 87.329 23.3253 87.681 22.696C88.0437 22.0667 88.5343 21.576 89.153 21.224C89.7823 20.8613 90.513 20.68 91.345 20.68C92.1877 20.68 92.9237 20.8613 93.553 21.224C94.1823 21.576 94.6677 22.0667 95.009 22.696C95.361 23.3253 95.537 24.056 95.537 24.888C95.537 25.7093 95.361 26.4453 95.009 27.096C94.6677 27.736 94.1823 28.2427 93.553 28.616C92.9237 28.9787 92.1877 29.16 91.345 29.16ZM91.345 27.8C91.8463 27.8 92.2783 27.6773 92.641 27.432C93.0143 27.1867 93.3077 26.8453 93.521 26.408C93.7343 25.9707 93.841 25.4587 93.841 24.872C93.841 23.9973 93.6063 23.3093 93.137 22.808C92.6783 22.296 92.081 22.04 91.345 22.04C90.6197 22.04 90.0223 22.296 89.553 22.808C89.0943 23.32 88.865 24.008 88.865 24.872C88.865 25.4587 88.9663 25.9707 89.169 26.408C89.3823 26.8453 89.6757 27.1867 90.049 27.432C90.433 27.6773 90.865 27.8 91.345 27.8ZM96.3829 32.44C96.1909 32.44 96.0255 32.4293 95.8869 32.408C95.7482 32.3867 95.6255 32.3547 95.5189 32.312V31.032C95.5935 31.0533 95.6949 31.0747 95.8229 31.096C95.9402 31.1173 96.0629 31.128 96.1909 31.128C96.5642 31.128 96.8255 31.0427 96.9749 30.872C97.1349 30.712 97.2149 30.4667 97.2149 30.136V20.84H98.8789V30.184C98.8789 30.8987 98.6762 31.4533 98.2709 31.848C97.8762 32.2427 97.2469 32.44 96.3829 32.44ZM97.1349 19.24V17.368H98.9749V19.24H97.1349ZM104.704 29.16C103.882 29.16 103.157 28.9787 102.528 28.616C101.909 28.2533 101.424 27.752 101.072 27.112C100.72 26.472 100.544 25.736 100.544 24.904C100.544 24.0613 100.714 23.3253 101.056 22.696C101.408 22.056 101.898 21.56 102.528 21.208C103.157 20.856 103.877 20.68 104.688 20.68C105.477 20.68 106.16 20.8507 106.736 21.192C107.322 21.5227 107.77 21.9867 108.08 22.584C108.4 23.1813 108.56 23.8907 108.56 24.712C108.56 24.84 108.554 24.9627 108.544 25.08C108.544 25.1867 108.533 25.2987 108.512 25.416H101.664V24.168H107.344L106.928 24.664C106.928 23.7893 106.73 23.1227 106.336 22.664C105.941 22.2053 105.392 21.976 104.688 21.976C103.93 21.976 103.328 22.2373 102.88 22.76C102.442 23.272 102.224 23.9867 102.224 24.904C102.224 25.832 102.442 26.5573 102.88 27.08C103.328 27.6027 103.946 27.864 104.736 27.864C105.216 27.864 105.632 27.768 105.984 27.576C106.336 27.3733 106.597 27.08 106.768 26.696H108.336C108.069 27.464 107.616 28.0667 106.976 28.504C106.346 28.9413 105.589 29.16 104.704 29.16ZM113.701 29.16C112.922 29.16 112.229 28.9787 111.621 28.616C111.013 28.2427 110.533 27.736 110.181 27.096C109.839 26.456 109.669 25.7253 109.669 24.904C109.669 24.0827 109.839 23.3573 110.181 22.728C110.533 22.088 111.013 21.5867 111.621 21.224C112.229 20.8613 112.917 20.68 113.685 20.68C114.335 20.68 114.917 20.8027 115.429 21.048C115.941 21.2933 116.362 21.6347 116.693 22.072C117.023 22.5093 117.237 23.0267 117.333 23.624H115.765C115.658 23.144 115.423 22.76 115.061 22.472C114.709 22.184 114.261 22.04 113.717 22.04C113.247 22.04 112.837 22.1573 112.485 22.392C112.133 22.6267 111.861 22.9573 111.669 23.384C111.477 23.8107 111.381 24.3173 111.381 24.904C111.381 25.48 111.477 25.9867 111.669 26.424C111.861 26.8613 112.133 27.2027 112.485 27.448C112.837 27.6827 113.253 27.8 113.733 27.8C114.255 27.8 114.698 27.6613 115.061 27.384C115.434 27.096 115.674 26.712 115.781 26.232H117.349C117.242 26.8187 117.018 27.3307 116.677 27.768C116.346 28.2053 115.925 28.5467 115.413 28.792C114.901 29.0373 114.33 29.16 113.701 29.16ZM122.406 29.16C121.456 29.16 120.758 28.9413 120.31 28.504C119.872 28.056 119.654 27.4 119.654 26.536V18.968L121.302 18.344V26.552C121.302 26.9787 121.414 27.2933 121.638 27.496C121.862 27.6987 122.224 27.8 122.726 27.8C122.918 27.8 123.088 27.784 123.238 27.752C123.387 27.72 123.515 27.6827 123.622 27.64V28.984C123.504 29.0373 123.339 29.08 123.126 29.112C122.912 29.144 122.672 29.16 122.406 29.16ZM118.022 22.168V20.84H123.622V22.168H118.022ZM128.096 29.16C127.03 29.16 126.182 28.9253 125.552 28.456C124.923 27.9867 124.566 27.3253 124.48 26.472H126.016C126.091 26.9413 126.304 27.304 126.656 27.56C127.019 27.8053 127.51 27.928 128.128 27.928C128.672 27.928 129.088 27.832 129.376 27.64C129.664 27.448 129.808 27.176 129.808 26.824C129.808 26.568 129.723 26.3547 129.552 26.184C129.392 26.0027 129.072 25.8533 128.592 25.736L127.28 25.432C126.459 25.2293 125.846 24.9307 125.44 24.536C125.046 24.1307 124.848 23.6347 124.848 23.048C124.848 22.312 125.12 21.736 125.664 21.32C126.219 20.8933 126.976 20.68 127.936 20.68C128.886 20.68 129.648 20.8933 130.224 21.32C130.811 21.7467 131.142 22.344 131.216 23.112H129.68C129.616 22.728 129.43 22.4347 129.12 22.232C128.822 22.0187 128.411 21.912 127.888 21.912C127.398 21.912 127.019 22.0027 126.752 22.184C126.496 22.3547 126.368 22.5947 126.368 22.904C126.368 23.16 126.464 23.3733 126.656 23.544C126.859 23.7147 127.19 23.8587 127.648 23.976L128.992 24.312C129.771 24.504 130.358 24.8187 130.752 25.256C131.147 25.6827 131.344 26.2 131.344 26.808C131.344 27.544 131.056 28.12 130.48 28.536C129.915 28.952 129.12 29.16 128.096 29.16Z" fill="white"/>
<path d="M151 18H161V28" stroke="white" stroke-width="2" stroke-linecap="round" stroke-linejoin="round"/>
<path d="M151 28L161 18" stroke="white" stroke-width="2" stroke-linecap="round" stroke-linejoin="round"/>
</svg>
