<svg width="217" height="46" viewBox="0 0 217 46" fill="none" xmlns="http://www.w3.org/2000/svg">
<rect x="0.5" y="0.5" width="216" height="45" rx="14.5" fill="url(#paint0_linear_2101_11)"/>
<rect x="0.5" y="0.5" width="216" height="45" rx="14.5" stroke="#3F444C"/>
<path d="M28.36 29.144C26.9733 29.144 25.864 28.8133 25.032 28.152C24.2 27.4907 23.7147 26.5467 23.576 25.32H25.224C25.32 26.12 25.64 26.728 26.184 27.144C26.728 27.56 27.464 27.768 28.392 27.768C29.1707 27.768 29.7573 27.624 30.152 27.336C30.5573 27.048 30.76 26.6373 30.76 26.104C30.76 25.624 30.6267 25.2453 30.36 24.968C30.0933 24.68 29.672 24.4453 29.096 24.264L27.096 23.624C26.072 23.2933 25.32 22.8773 24.84 22.376C24.36 21.8747 24.12 21.24 24.12 20.472C24.12 19.8213 24.28 19.2613 24.6 18.792C24.9307 18.3227 25.3893 17.96 25.976 17.704C26.5733 17.4373 27.2667 17.304 28.056 17.304C29.272 17.304 30.2427 17.6133 30.968 18.232C31.704 18.84 32.1253 19.688 32.232 20.776H30.584C30.456 20.0507 30.1787 19.5227 29.752 19.192C29.3253 18.8507 28.7387 18.68 27.992 18.68C27.288 18.68 26.7387 18.8187 26.344 19.096C25.9493 19.3733 25.752 19.7627 25.752 20.264C25.752 20.6693 25.88 21.0107 26.136 21.288C26.4027 21.5547 26.84 21.784 27.448 21.976L29.544 22.648C30.5147 22.9573 31.2293 23.3787 31.688 23.912C32.1573 24.4453 32.392 25.1173 32.392 25.928C32.392 26.952 32.04 27.7467 31.336 28.312C30.632 28.8667 29.64 29.144 28.36 29.144ZM37.6575 29.16C36.8255 29.16 36.0948 28.9787 35.4655 28.616C34.8362 28.2427 34.3455 27.736 33.9935 27.096C33.6415 26.4453 33.4655 25.7093 33.4655 24.888C33.4655 24.056 33.6415 23.3253 33.9935 22.696C34.3562 22.0667 34.8468 21.576 35.4655 21.224C36.0948 20.8613 36.8255 20.68 37.6575 20.68C38.5002 20.68 39.2362 20.8613 39.8655 21.224C40.4948 21.576 40.9802 22.0667 41.3215 22.696C41.6735 23.3253 41.8495 24.056 41.8495 24.888C41.8495 25.7093 41.6735 26.4453 41.3215 27.096C40.9802 27.736 40.4948 28.2427 39.8655 28.616C39.2362 28.9787 38.5002 29.16 37.6575 29.16ZM37.6575 27.8C38.1588 27.8 38.5908 27.6773 38.9535 27.432C39.3268 27.1867 39.6202 26.8453 39.8335 26.408C40.0468 25.9707 40.1535 25.4587 40.1535 24.872C40.1535 23.9973 39.9188 23.3093 39.4495 22.808C38.9908 22.296 38.3935 22.04 37.6575 22.04C36.9322 22.04 36.3348 22.296 35.8655 22.808C35.4068 23.32 35.1775 24.008 35.1775 24.872C35.1775 25.4587 35.2788 25.9707 35.4815 26.408C35.6948 26.8453 35.9882 27.1867 36.3615 27.432C36.7455 27.6773 37.1775 27.8 37.6575 27.8ZM44.1053 29V19.896C44.1053 19.064 44.3399 18.4293 44.8093 17.992C45.2786 17.544 45.9826 17.32 46.9213 17.32C47.1346 17.32 47.3106 17.3307 47.4493 17.352C47.5879 17.3733 47.7106 17.4053 47.8173 17.448V18.728C47.7426 18.7067 47.6413 18.6853 47.5133 18.664C47.3959 18.6427 47.2626 18.632 47.1133 18.632C46.6439 18.632 46.3026 18.7493 46.0893 18.984C45.8759 19.208 45.7693 19.528 45.7693 19.944V29H44.1053ZM42.5373 22.168V20.84H47.6413V22.168H42.5373ZM52.8744 29.16C51.925 29.16 51.2264 28.9413 50.7784 28.504C50.341 28.056 50.1224 27.4 50.1224 26.536V18.968L51.7704 18.344V26.552C51.7704 26.9787 51.8824 27.2933 52.1064 27.496C52.3304 27.6987 52.693 27.8 53.1944 27.8C53.3864 27.8 53.557 27.784 53.7064 27.752C53.8557 27.72 53.9837 27.6827 54.0904 27.64V28.984C53.973 29.0373 53.8077 29.08 53.5944 29.112C53.381 29.144 53.141 29.16 52.8744 29.16ZM48.4904 22.168V20.84H54.0904V22.168H48.4904ZM57.348 29L54.852 20.84H56.564L58.26 27.4H58.02L60.084 20.84H61.524L63.588 27.4H63.364L65.044 20.84H66.676L64.18 29H62.724L60.66 22.552H60.9L58.804 29H57.348ZM72.9896 29C72.9363 28.7973 72.899 28.5733 72.8776 28.328C72.867 28.0827 72.8616 27.784 72.8616 27.432H72.7816V23.544C72.7816 23.0213 72.6483 22.632 72.3816 22.376C72.1256 22.1093 71.715 21.976 71.1496 21.976C70.6056 21.976 70.1683 22.0827 69.8376 22.296C69.5176 22.5093 69.331 22.8133 69.2776 23.208H67.6936C67.7683 22.44 68.115 21.8267 68.7336 21.368C69.3523 20.9093 70.179 20.68 71.2136 20.68C72.2803 20.68 73.0803 20.9307 73.6136 21.432C74.147 21.9227 74.4136 22.648 74.4136 23.608V27.432C74.4136 27.6773 74.4296 27.928 74.4616 28.184C74.4936 28.44 74.5416 28.712 74.6056 29H72.9896ZM70.1736 29.16C69.3416 29.16 68.6803 28.9573 68.1896 28.552C67.699 28.136 67.4536 27.576 67.4536 26.872C67.4536 26.1467 67.7096 25.576 68.2216 25.16C68.7443 24.7333 69.491 24.4453 70.4616 24.296L73.1496 23.864V25.032L70.7176 25.416C70.1736 25.5013 69.763 25.6453 69.4856 25.848C69.219 26.0507 69.0856 26.344 69.0856 26.728C69.0856 27.1013 69.2083 27.384 69.4536 27.576C69.7096 27.7573 70.0776 27.848 70.5576 27.848C71.1976 27.848 71.7256 27.6933 72.1416 27.384C72.5683 27.0747 72.7816 26.6853 72.7816 26.216L72.9896 27.4C72.7976 27.9653 72.4563 28.4027 71.9656 28.712C71.475 29.0107 70.8776 29.16 70.1736 29.16ZM76.668 29V20.84H78.252V22.872H78.332V29H76.668ZM78.332 24.744L78.124 22.808C78.316 22.1147 78.6467 21.5867 79.116 21.224C79.5853 20.8613 80.1453 20.68 80.796 20.68C81.0413 20.68 81.212 20.7013 81.308 20.744V22.312C81.2547 22.2907 81.18 22.28 81.084 22.28C80.988 22.2693 80.8707 22.264 80.732 22.264C79.932 22.264 79.3293 22.472 78.924 22.888C78.5293 23.304 78.332 23.9227 78.332 24.744ZM86.0786 29.16C85.2573 29.16 84.532 28.9787 83.9026 28.616C83.284 28.2533 82.7986 27.752 82.4466 27.112C82.0946 26.472 81.9186 25.736 81.9186 24.904C81.9186 24.0613 82.0893 23.3253 82.4306 22.696C82.7826 22.056 83.2733 21.56 83.9026 21.208C84.532 20.856 85.252 20.68 86.0626 20.68C86.852 20.68 87.5346 20.8507 88.1106 21.192C88.6973 21.5227 89.1453 21.9867 89.4546 22.584C89.7746 23.1813 89.9346 23.8907 89.9346 24.712C89.9346 24.84 89.9293 24.9627 89.9186 25.08C89.9186 25.1867 89.908 25.2987 89.8866 25.416H83.0386V24.168H88.7186L88.3026 24.664C88.3026 23.7893 88.1053 23.1227 87.7106 22.664C87.316 22.2053 86.7666 21.976 86.0626 21.976C85.3053 21.976 84.7026 22.2373 84.2546 22.76C83.8173 23.272 83.5986 23.9867 83.5986 24.904C83.5986 25.832 83.8173 26.5573 84.2546 27.08C84.7026 27.6027 85.3213 27.864 86.1106 27.864C86.5906 27.864 87.0066 27.768 87.3586 27.576C87.7106 27.3733 87.972 27.08 88.1426 26.696H89.7106C89.444 27.464 88.9906 28.0667 88.3506 28.504C87.7213 28.9413 86.964 29.16 86.0786 29.16ZM94.793 29V17.48H99.337C100.169 17.48 100.878 17.6187 101.465 17.896C102.052 18.1627 102.505 18.5413 102.825 19.032C103.145 19.512 103.305 20.0827 103.305 20.744C103.305 21.4053 103.145 21.9813 102.825 22.472C102.505 22.9627 102.052 23.3467 101.465 23.624C100.878 23.9013 100.169 24.04 99.337 24.04H96.073V22.664H99.289C100.057 22.664 100.638 22.4987 101.033 22.168C101.438 21.8267 101.641 21.3573 101.641 20.76C101.641 20.1627 101.444 19.6987 101.049 19.368C100.654 19.0373 100.068 18.872 99.289 18.872H96.489V29H94.793ZM101.449 29L95.833 23.192H97.897L103.881 29H101.449ZM108.391 29.16C107.57 29.16 106.844 28.9787 106.215 28.616C105.596 28.2533 105.111 27.752 104.759 27.112C104.407 26.472 104.231 25.736 104.231 24.904C104.231 24.0613 104.402 23.3253 104.743 22.696C105.095 22.056 105.586 21.56 106.215 21.208C106.844 20.856 107.564 20.68 108.375 20.68C109.164 20.68 109.847 20.8507 110.423 21.192C111.01 21.5227 111.458 21.9867 111.767 22.584C112.087 23.1813 112.247 23.8907 112.247 24.712C112.247 24.84 112.242 24.9627 112.231 25.08C112.231 25.1867 112.22 25.2987 112.199 25.416H105.351V24.168H111.031L110.615 24.664C110.615 23.7893 110.418 23.1227 110.023 22.664C109.628 22.2053 109.079 21.976 108.375 21.976C107.618 21.976 107.015 22.2373 106.567 22.76C106.13 23.272 105.911 23.9867 105.911 24.904C105.911 25.832 106.13 26.5573 106.567 27.08C107.015 27.6027 107.634 27.864 108.423 27.864C108.903 27.864 109.319 27.768 109.671 27.576C110.023 27.3733 110.284 27.08 110.455 26.696H112.023C111.756 27.464 111.303 28.0667 110.663 28.504C110.034 28.9413 109.276 29.16 108.391 29.16ZM113.949 29V17.48H115.613V29H113.949ZM121.469 29.16C120.648 29.16 119.923 28.9787 119.293 28.616C118.675 28.2533 118.189 27.752 117.837 27.112C117.485 26.472 117.309 25.736 117.309 24.904C117.309 24.0613 117.48 23.3253 117.821 22.696C118.173 22.056 118.664 21.56 119.293 21.208C119.923 20.856 120.643 20.68 121.453 20.68C122.243 20.68 122.925 20.8507 123.501 21.192C124.088 21.5227 124.536 21.9867 124.845 22.584C125.165 23.1813 125.325 23.8907 125.325 24.712C125.325 24.84 125.32 24.9627 125.309 25.08C125.309 25.1867 125.299 25.2987 125.277 25.416H118.429V24.168H124.109L123.693 24.664C123.693 23.7893 123.496 23.1227 123.101 22.664C122.707 22.2053 122.157 21.976 121.453 21.976C120.696 21.976 120.093 22.2373 119.645 22.76C119.208 23.272 118.989 23.9867 118.989 24.904C118.989 25.832 119.208 26.5573 119.645 27.08C120.093 27.6027 120.712 27.864 121.501 27.864C121.981 27.864 122.397 27.768 122.749 27.576C123.101 27.3733 123.363 27.08 123.533 26.696H125.101C124.835 27.464 124.381 28.0667 123.741 28.504C123.112 28.9413 122.355 29.16 121.469 29.16ZM131.99 29C131.936 28.7973 131.899 28.5733 131.878 28.328C131.867 28.0827 131.862 27.784 131.862 27.432H131.782V23.544C131.782 23.0213 131.648 22.632 131.382 22.376C131.126 22.1093 130.715 21.976 130.15 21.976C129.606 21.976 129.168 22.0827 128.838 22.296C128.518 22.5093 128.331 22.8133 128.278 23.208H126.694C126.768 22.44 127.115 21.8267 127.734 21.368C128.352 20.9093 129.179 20.68 130.214 20.68C131.28 20.68 132.08 20.9307 132.614 21.432C133.147 21.9227 133.414 22.648 133.414 23.608V27.432C133.414 27.6773 133.43 27.928 133.462 28.184C133.494 28.44 133.542 28.712 133.606 29H131.99ZM129.174 29.16C128.342 29.16 127.68 28.9573 127.19 28.552C126.699 28.136 126.454 27.576 126.454 26.872C126.454 26.1467 126.71 25.576 127.222 25.16C127.744 24.7333 128.491 24.4453 129.462 24.296L132.15 23.864V25.032L129.718 25.416C129.174 25.5013 128.763 25.6453 128.486 25.848C128.219 26.0507 128.086 26.344 128.086 26.728C128.086 27.1013 128.208 27.384 128.454 27.576C128.71 27.7573 129.078 27.848 129.558 27.848C130.198 27.848 130.726 27.6933 131.142 27.384C131.568 27.0747 131.782 26.6853 131.782 26.216L131.99 27.4C131.798 27.9653 131.456 28.4027 130.966 28.712C130.475 29.0107 129.878 29.16 129.174 29.16ZM138.518 29.16C137.452 29.16 136.604 28.9253 135.974 28.456C135.345 27.9867 134.988 27.3253 134.902 26.472H136.438C136.513 26.9413 136.726 27.304 137.078 27.56C137.441 27.8053 137.932 27.928 138.55 27.928C139.094 27.928 139.51 27.832 139.798 27.64C140.086 27.448 140.23 27.176 140.23 26.824C140.23 26.568 140.145 26.3547 139.974 26.184C139.814 26.0027 139.494 25.8533 139.014 25.736L137.702 25.432C136.881 25.2293 136.268 24.9307 135.862 24.536C135.468 24.1307 135.27 23.6347 135.27 23.048C135.27 22.312 135.542 21.736 136.086 21.32C136.641 20.8933 137.398 20.68 138.358 20.68C139.308 20.68 140.07 20.8933 140.646 21.32C141.233 21.7467 141.564 22.344 141.638 23.112H140.102C140.038 22.728 139.852 22.4347 139.542 22.232C139.244 22.0187 138.833 21.912 138.31 21.912C137.82 21.912 137.441 22.0027 137.174 22.184C136.918 22.3547 136.79 22.5947 136.79 22.904C136.79 23.16 136.886 23.3733 137.078 23.544C137.281 23.7147 137.612 23.8587 138.07 23.976L139.414 24.312C140.193 24.504 140.78 24.8187 141.174 25.256C141.569 25.6827 141.766 26.2 141.766 26.808C141.766 27.544 141.478 28.12 140.902 28.536C140.337 28.952 139.542 29.16 138.518 29.16ZM147.11 29.16C146.289 29.16 145.563 28.9787 144.934 28.616C144.315 28.2533 143.83 27.752 143.478 27.112C143.126 26.472 142.95 25.736 142.95 24.904C142.95 24.0613 143.121 23.3253 143.462 22.696C143.814 22.056 144.305 21.56 144.934 21.208C145.563 20.856 146.283 20.68 147.094 20.68C147.883 20.68 148.566 20.8507 149.142 21.192C149.729 21.5227 150.177 21.9867 150.486 22.584C150.806 23.1813 150.966 23.8907 150.966 24.712C150.966 24.84 150.961 24.9627 150.95 25.08C150.95 25.1867 150.939 25.2987 150.918 25.416H144.07V24.168H149.75L149.334 24.664C149.334 23.7893 149.137 23.1227 148.742 22.664C148.347 22.2053 147.798 21.976 147.094 21.976C146.337 21.976 145.734 22.2373 145.286 22.76C144.849 23.272 144.63 23.9867 144.63 24.904C144.63 25.832 144.849 26.5573 145.286 27.08C145.734 27.6027 146.353 27.864 147.142 27.864C147.622 27.864 148.038 27.768 148.39 27.576C148.742 27.3733 149.003 27.08 149.174 26.696H150.742C150.475 27.464 150.022 28.0667 149.382 28.504C148.753 28.9413 147.995 29.16 147.11 29.16ZM155.643 29.16C154.577 29.16 153.729 28.9253 153.099 28.456C152.47 27.9867 152.113 27.3253 152.027 26.472H153.563C153.638 26.9413 153.851 27.304 154.203 27.56C154.566 27.8053 155.057 27.928 155.675 27.928C156.219 27.928 156.635 27.832 156.923 27.64C157.211 27.448 157.355 27.176 157.355 26.824C157.355 26.568 157.27 26.3547 157.099 26.184C156.939 26.0027 156.619 25.8533 156.139 25.736L154.827 25.432C154.006 25.2293 153.393 24.9307 152.987 24.536C152.593 24.1307 152.395 23.6347 152.395 23.048C152.395 22.312 152.667 21.736 153.211 21.32C153.766 20.8933 154.523 20.68 155.483 20.68C156.433 20.68 157.195 20.8933 157.771 21.32C158.358 21.7467 158.689 22.344 158.763 23.112H157.227C157.163 22.728 156.977 22.4347 156.667 22.232C156.369 22.0187 155.958 21.912 155.435 21.912C154.945 21.912 154.566 22.0027 154.299 22.184C154.043 22.3547 153.915 22.5947 153.915 22.904C153.915 23.16 154.011 23.3733 154.203 23.544C154.406 23.7147 154.737 23.8587 155.195 23.976L156.539 24.312C157.318 24.504 157.905 24.8187 158.299 25.256C158.694 25.6827 158.891 26.2 158.891 26.808C158.891 27.544 158.603 28.12 158.027 28.536C157.462 28.952 156.667 29.16 155.643 29.16Z" fill="white"/>
<path d="M177 18H187V28" stroke="white" stroke-width="2" stroke-linecap="round" stroke-linejoin="round"/>
<path d="M177 28L187 18" stroke="white" stroke-width="2" stroke-linecap="round" stroke-linejoin="round"/>
<defs>
<linearGradient id="paint0_linear_2101_11" x1="217" y1="42.8461" x2="0.203575" y2="2.0715" gradientUnits="userSpaceOnUse">
<stop stop-color="#223814"/>
<stop offset="1" stop-color="#0E1117" stop-opacity="0"/>
</linearGradient>
</defs>
</svg>
