<?xml version="1.0" encoding="utf-8"?>
<!-- Generator: Adobe Illustrator 28.0.0, SVG Export Plug-In . SVG Version: 6.00 Build 0)  -->
<svg version="1.1" id="a" xmlns="http://www.w3.org/2000/svg" xmlns:xlink="http://www.w3.org/1999/xlink" x="0px" y="0px"
	 viewBox="0 0 960 115" style="enable-background:new 0 0 960 115;" xml:space="preserve">
<style type="text/css">
	.st0{enable-background:new    ;}
	.st1{fill:#231F20;}
</style>
<g class="st0">
	<path class="st1" d="M8.6,16.3h0.1v0.1v7.2v0.1H8.6H1.4H1.3v-0.1v-7.2v-0.1h0.1H8.6z M8.6,26.3h0.1v0.1v7.2v0.1H8.6H1.4H1.3v-0.1
		v-7.2v-0.1h0.1H8.6z M8.6,36.3h0.1v0.1v7.2v0.1H8.6H1.4H1.3v-0.1v-7.2v-0.1h0.1H8.6z M8.6,46.3h0.1v0.1v7.2v0.1H8.6H1.4H1.3v-0.1
		v-7.2v-0.1h0.1H8.6z M8.6,56.3h0.1v0.1v7.2v0.1H8.6H1.4H1.3v-0.1v-7.2v-0.1h0.1H8.6z M8.6,66.3h0.1v0.1v7.2v0.1H8.6H1.4H1.3v-0.1
		v-7.2v-0.1h0.1H8.6z M8.6,76.3h0.1v0.1v7.2v0.1H8.6H1.4H1.3v-0.1v-7.2v-0.1h0.1H8.6z M18.6,46.3h0.1v0.1v7.2v0.1h-0.1h-7.2h-0.1
		v-0.1v-7.2v-0.1h0.1H18.6z M28.6,46.3h0.1v0.1v7.2v0.1h-0.1h-7.2h-0.1v-0.1v-7.2v-0.1h0.1H28.6z M38.6,46.3h0.1v0.1v7.2v0.1h-0.1
		h-7.2h-0.1v-0.1v-7.2v-0.1h0.1H38.6z M48.6,16.3h0.1v0.1v7.2v0.1h-0.1h-7.2h-0.1v-0.1v-7.2v-0.1h0.1H48.6z M48.6,26.3h0.1v0.1v7.2
		v0.1h-0.1h-7.2h-0.1v-0.1v-7.2v-0.1h0.1H48.6z M48.6,36.3h0.1v0.1v7.2v0.1h-0.1h-7.2h-0.1v-0.1v-7.2v-0.1h0.1H48.6z M48.6,46.3h0.1
		v0.1v7.2v0.1h-0.1h-7.2h-0.1v-0.1v-7.2v-0.1h0.1H48.6z M48.6,56.3h0.1v0.1v7.2v0.1h-0.1h-7.2h-0.1v-0.1v-7.2v-0.1h0.1H48.6z
		 M48.6,66.3h0.1v0.1v7.2v0.1h-0.1h-7.2h-0.1v-0.1v-7.2v-0.1h0.1H48.6z M48.6,76.3h0.1v0.1v7.2v0.1h-0.1h-7.2h-0.1v-0.1v-7.2v-0.1
		h0.1H48.6z"/>
	<path class="st1" d="M78.6,36.3h0.1v0.1v7.2v0.1h-0.1h-7.2h-0.1v-0.1v-7.2v-0.1h0.1H78.6z M78.6,76.3h0.1v0.1v7.2v0.1h-0.1h-7.2
		h-0.1v-0.1v-7.2v-0.1h0.1H78.6z M88.6,16.3h0.1v0.1v7.2v0.1h-0.1h-7.2h-0.1v-0.1v-7.2v-0.1h0.1H88.6z M88.6,36.3h0.1v0.1v7.2v0.1
		h-0.1h-7.2h-0.1v-0.1v-7.2v-0.1h0.1H88.6z M88.6,46.3h0.1v0.1v7.2v0.1h-0.1h-7.2h-0.1v-0.1v-7.2v-0.1h0.1H88.6z M88.6,56.3h0.1v0.1
		v7.2v0.1h-0.1h-7.2h-0.1v-0.1v-7.2v-0.1h0.1H88.6z M88.6,66.3h0.1v0.1v7.2v0.1h-0.1h-7.2h-0.1v-0.1v-7.2v-0.1h0.1H88.6z M88.6,76.3
		h0.1v0.1v7.2v0.1h-0.1h-7.2h-0.1v-0.1v-7.2v-0.1h0.1H88.6z M98.6,76.3h0.1v0.1v7.2v0.1h-0.1h-7.2h-0.1v-0.1v-7.2v-0.1h0.1H98.6z"/>
	<path class="st1" d="M138.6,86.3h0.1v0.1v7.2v0.1h-0.1h-7.2h-0.1v-0.1v-7.2v-0.1h0.1H138.6z M148.6,66.3h0.1v0.1v7.2v0.1h-0.1h-7.2
		h-0.1v-0.1v-7.2v-0.1h0.1H148.6z M148.6,76.3h0.1v0.1v7.2v0.1h-0.1h-7.2h-0.1v-0.1v-7.2v-0.1h0.1H148.6z M158.6,66.3h0.1v0.1v7.2
		v0.1h-0.1h-7.2h-0.1v-0.1v-7.2v-0.1h0.1H158.6z"/>
	<path class="st1" d="M258.6,16.3h0.1v0.1v7.2v0.1h-0.1h-7.2h-0.1v-0.1v-7.2v-0.1h0.1H258.6z M258.6,76.3h0.1v0.1v7.2v0.1h-0.1h-7.2
		h-0.1v-0.1v-7.2v-0.1h0.1H258.6z M268.6,16.3h0.1v0.1v7.2v0.1h-0.1h-7.2h-0.1v-0.1v-7.2v-0.1h0.1H268.6z M268.6,26.3h0.1v0.1v7.2
		v0.1h-0.1h-7.2h-0.1v-0.1v-7.2v-0.1h0.1H268.6z M268.6,36.3h0.1v0.1v7.2v0.1h-0.1h-7.2h-0.1v-0.1v-7.2v-0.1h0.1H268.6z M268.6,46.3
		h0.1v0.1v7.2v0.1h-0.1h-7.2h-0.1v-0.1v-7.2v-0.1h0.1H268.6z M268.6,56.3h0.1v0.1v7.2v0.1h-0.1h-7.2h-0.1v-0.1v-7.2v-0.1h0.1H268.6z
		 M268.6,66.3h0.1v0.1v7.2v0.1h-0.1h-7.2h-0.1v-0.1v-7.2v-0.1h0.1H268.6z M268.6,76.3h0.1v0.1v7.2v0.1h-0.1h-7.2h-0.1v-0.1v-7.2
		v-0.1h0.1H268.6z M278.6,16.3h0.1v0.1v7.2v0.1h-0.1h-7.2h-0.1v-0.1v-7.2v-0.1h0.1H278.6z M278.6,76.3h0.1v0.1v7.2v0.1h-0.1h-7.2
		h-0.1v-0.1v-7.2v-0.1h0.1H278.6z"/>
	<path class="st1" d="M328.6,16.3h0.1v0.1v7.2v0.1h-0.1h-7.2h-0.1v-0.1v-7.2v-0.1h0.1H328.6z M328.6,36.3h0.1v0.1v7.2v0.1h-0.1h-7.2
		h-0.1v-0.1v-7.2v-0.1h0.1H328.6z M338.6,16.3h0.1v0.1v7.2v0.1h-0.1h-7.2h-0.1v-0.1v-7.2v-0.1h0.1H338.6z M338.6,26.3h0.1v0.1v7.2
		v0.1h-0.1h-7.2h-0.1v-0.1v-7.2v-0.1h0.1H338.6z"/>
	<path class="st1" d="M368.6,36.3h0.1v0.1v7.2v0.1h-0.1h-7.2h-0.1v-0.1v-7.2v-0.1h0.1H368.6z M368.6,46.3h0.1v0.1v7.2v0.1h-0.1h-7.2
		h-0.1v-0.1v-7.2v-0.1h0.1H368.6z M368.6,56.3h0.1v0.1v7.2v0.1h-0.1h-7.2h-0.1v-0.1v-7.2v-0.1h0.1H368.6z M368.6,66.3h0.1v0.1v7.2
		v0.1h-0.1h-7.2h-0.1v-0.1v-7.2v-0.1h0.1H368.6z M368.6,76.3h0.1v0.1v7.2v0.1h-0.1h-7.2h-0.1v-0.1v-7.2v-0.1h0.1H368.6z M378.6,36.3
		h0.1v0.1v7.2v0.1h-0.1h-7.2h-0.1v-0.1v-7.2v-0.1h0.1H378.6z M388.6,46.3h0.1v0.1v7.2v0.1h-0.1h-7.2h-0.1v-0.1v-7.2v-0.1h0.1H388.6z
		 M388.6,56.3h0.1v0.1v7.2v0.1h-0.1h-7.2h-0.1v-0.1v-7.2v-0.1h0.1H388.6z M388.6,66.3h0.1v0.1v7.2v0.1h-0.1h-7.2h-0.1v-0.1v-7.2
		v-0.1h0.1H388.6z M398.6,36.3h0.1v0.1v7.2v0.1h-0.1h-7.2h-0.1v-0.1v-7.2v-0.1h0.1H398.6z M408.6,46.3h0.1v0.1v7.2v0.1h-0.1h-7.2
		h-0.1v-0.1v-7.2v-0.1h0.1H408.6z M408.6,56.3h0.1v0.1v7.2v0.1h-0.1h-7.2h-0.1v-0.1v-7.2v-0.1h0.1H408.6z M408.6,66.3h0.1v0.1v7.2
		v0.1h-0.1h-7.2h-0.1v-0.1v-7.2v-0.1h0.1H408.6z M408.6,76.3h0.1v0.1v7.2v0.1h-0.1h-7.2h-0.1v-0.1v-7.2v-0.1h0.1H408.6z"/>
	<path class="st1" d="M488.6,66.3h0.1v0.1v7.2v0.1h-0.1h-7.2h-0.1v-0.1v-7.2v-0.1h0.1H488.6z M498.6,76.3h0.1v0.1v7.2v0.1h-0.1h-7.2
		h-0.1v-0.1v-7.2v-0.1h0.1H498.6z M508.6,16.3h0.1v0.1v7.2v0.1h-0.1h-7.2h-0.1v-0.1v-7.2v-0.1h0.1H508.6z M508.6,76.3h0.1v0.1v7.2
		v0.1h-0.1h-7.2h-0.1v-0.1v-7.2v-0.1h0.1H508.6z M518.6,16.3h0.1v0.1v7.2v0.1h-0.1h-7.2h-0.1v-0.1v-7.2v-0.1h0.1H518.6z M518.6,26.3
		h0.1v0.1v7.2v0.1h-0.1h-7.2h-0.1v-0.1v-7.2v-0.1h0.1H518.6z M518.6,36.3h0.1v0.1v7.2v0.1h-0.1h-7.2h-0.1v-0.1v-7.2v-0.1h0.1H518.6z
		 M518.6,46.3h0.1v0.1v7.2v0.1h-0.1h-7.2h-0.1v-0.1v-7.2v-0.1h0.1H518.6z M518.6,56.3h0.1v0.1v7.2v0.1h-0.1h-7.2h-0.1v-0.1v-7.2
		v-0.1h0.1H518.6z M518.6,66.3h0.1v0.1v7.2v0.1h-0.1h-7.2h-0.1v-0.1v-7.2v-0.1h0.1H518.6z M528.6,16.3h0.1v0.1v7.2v0.1h-0.1h-7.2
		h-0.1v-0.1v-7.2v-0.1h0.1H528.6z"/>
	<path class="st1" d="M548.6,36.3L548.6,36.3l0.1,0.1v7.2v0.1h-0.1h-7.2h-0.1v-0.1v-7.2v-0.1h0.1H548.6z M548.6,46.3L548.6,46.3
		l0.1,0.1v7.2v0.1h-0.1h-7.2h-0.1v-0.1v-7.2v-0.1h0.1H548.6z M548.6,56.3L548.6,56.3l0.1,0.1v7.2v0.1h-0.1h-7.2h-0.1v-0.1v-7.2v-0.1
		h0.1H548.6z M548.6,66.3L548.6,66.3l0.1,0.1v7.2v0.1h-0.1h-7.2h-0.1v-0.1v-7.2v-0.1h0.1H548.6z M558.6,76.3L558.6,76.3l0.1,0.1v7.2
		v0.1h-0.1h-7.2h-0.1v-0.1v-7.2v-0.1h0.1H558.6z M568.6,76.3L568.6,76.3l0.1,0.1v7.2v0.1h-0.1h-7.2h-0.1v-0.1v-7.2v-0.1h0.1H568.6z
		 M578.6,66.3L578.6,66.3l0.1,0.1v7.2v0.1h-0.1h-7.2h-0.1v-0.1v-7.2v-0.1h0.1H578.6z M588.6,36.3L588.6,36.3l0.1,0.1v7.2v0.1h-0.1
		h-7.2h-0.1v-0.1v-7.2v-0.1h0.1H588.6z M588.6,46.3L588.6,46.3l0.1,0.1v7.2v0.1h-0.1h-7.2h-0.1v-0.1v-7.2v-0.1h0.1H588.6z
		 M588.6,56.3L588.6,56.3l0.1,0.1v7.2v0.1h-0.1h-7.2h-0.1v-0.1v-7.2v-0.1h0.1H588.6z M588.6,66.3L588.6,66.3l0.1,0.1v7.2v0.1h-0.1
		h-7.2h-0.1v-0.1v-7.2v-0.1h0.1H588.6z M588.6,76.3L588.6,76.3l0.1,0.1v7.2v0.1h-0.1h-7.2h-0.1v-0.1v-7.2v-0.1h0.1H588.6z"/>
	<path class="st1" d="M608.6,46.3h0.1v0.1v7.2v0.1h-0.1h-7.2h-0.1v-0.1v-7.2v-0.1h0.1H608.6z M608.6,76.3h0.1v0.1v7.2v0.1h-0.1h-7.2
		h-0.1v-0.1v-7.2v-0.1h0.1H608.6z M618.6,36.3h0.1v0.1v7.2v0.1h-0.1h-7.2h-0.1v-0.1v-7.2v-0.1h0.1H618.6z M618.6,56.3h0.1v0.1v7.2
		v0.1h-0.1h-7.2h-0.1v-0.1v-7.2v-0.1h0.1H618.6z M618.6,76.3h0.1v0.1v7.2v0.1h-0.1h-7.2h-0.1v-0.1v-7.2v-0.1h0.1H618.6z M628.6,36.3
		h0.1v0.1v7.2v0.1h-0.1h-7.2h-0.1v-0.1v-7.2v-0.1h0.1H628.6z M628.6,56.3h0.1v0.1v7.2v0.1h-0.1h-7.2h-0.1v-0.1v-7.2v-0.1h0.1H628.6z
		 M628.6,76.3h0.1v0.1v7.2v0.1h-0.1h-7.2h-0.1v-0.1v-7.2v-0.1h0.1H628.6z M638.6,36.3h0.1v0.1v7.2v0.1h-0.1h-7.2h-0.1v-0.1v-7.2
		v-0.1h0.1H638.6z M638.6,56.3h0.1v0.1v7.2v0.1h-0.1h-7.2h-0.1v-0.1v-7.2v-0.1h0.1H638.6z M638.6,76.3h0.1v0.1v7.2v0.1h-0.1h-7.2
		h-0.1v-0.1v-7.2v-0.1h0.1H638.6z M648.6,66.3h0.1v0.1v7.2v0.1h-0.1h-7.2h-0.1v-0.1v-7.2v-0.1h0.1H648.6z"/>
	<path class="st1" d="M668.6,36.3L668.6,36.3l0.1,0.1v7.2v0.1h-0.1h-7.2h-0.1v-0.1v-7.2v-0.1h0.1H668.6z M678.6,16.3L678.6,16.3
		l0.1,0.1v7.2v0.1h-0.1h-7.2h-0.1v-0.1v-7.2v-0.1h0.1H678.6z M678.6,26.3L678.6,26.3l0.1,0.1v7.2v0.1h-0.1h-7.2h-0.1v-0.1v-7.2v-0.1
		h0.1H678.6z M678.6,36.3L678.6,36.3l0.1,0.1v7.2v0.1h-0.1h-7.2h-0.1v-0.1v-7.2v-0.1h0.1H678.6z M678.6,46.3L678.6,46.3l0.1,0.1v7.2
		v0.1h-0.1h-7.2h-0.1v-0.1v-7.2v-0.1h0.1H678.6z M678.6,56.3L678.6,56.3l0.1,0.1v7.2v0.1h-0.1h-7.2h-0.1v-0.1v-7.2v-0.1h0.1H678.6z
		 M678.6,66.3L678.6,66.3l0.1,0.1v7.2v0.1h-0.1h-7.2h-0.1v-0.1v-7.2v-0.1h0.1H678.6z M688.6,36.3L688.6,36.3l0.1,0.1v7.2v0.1h-0.1
		h-7.2h-0.1v-0.1v-7.2v-0.1h0.1H688.6z M688.6,76.3L688.6,76.3l0.1,0.1v7.2v0.1h-0.1h-7.2h-0.1v-0.1v-7.2v-0.1h0.1H688.6z
		 M698.6,36.3L698.6,36.3l0.1,0.1v7.2v0.1h-0.1h-7.2h-0.1v-0.1v-7.2v-0.1h0.1H698.6z M698.6,76.3L698.6,76.3l0.1,0.1v7.2v0.1h-0.1
		h-7.2h-0.1v-0.1v-7.2v-0.1h0.1H698.6z M708.6,66.3L708.6,66.3l0.1,0.1v7.2v0.1h-0.1h-7.2h-0.1v-0.1v-7.2v-0.1h0.1H708.6z"/>
	<path class="st1" d="M738.6,36.3L738.6,36.3l0.1,0.1v7.2v0.1h-0.1h-7.2h-0.1v-0.1v-7.2v-0.1h0.1H738.6z M738.6,76.3L738.6,76.3
		l0.1,0.1v7.2v0.1h-0.1h-7.2h-0.1v-0.1v-7.2v-0.1h0.1H738.6z M748.6,16.3L748.6,16.3l0.1,0.1v7.2v0.1h-0.1h-7.2h-0.1v-0.1v-7.2v-0.1
		h0.1H748.6z M748.6,36.3L748.6,36.3l0.1,0.1v7.2v0.1h-0.1h-7.2h-0.1v-0.1v-7.2v-0.1h0.1H748.6z M748.6,46.3L748.6,46.3l0.1,0.1v7.2
		v0.1h-0.1h-7.2h-0.1v-0.1v-7.2v-0.1h0.1H748.6z M748.6,56.3L748.6,56.3l0.1,0.1v7.2v0.1h-0.1h-7.2h-0.1v-0.1v-7.2v-0.1h0.1H748.6z
		 M748.6,66.3L748.6,66.3l0.1,0.1v7.2v0.1h-0.1h-7.2h-0.1v-0.1v-7.2v-0.1h0.1H748.6z M748.6,76.3L748.6,76.3l0.1,0.1v7.2v0.1h-0.1
		h-7.2h-0.1v-0.1v-7.2v-0.1h0.1H748.6z M758.6,76.3L758.6,76.3l0.1,0.1v7.2v0.1h-0.1h-7.2h-0.1v-0.1v-7.2v-0.1h0.1H758.6z"/>
	<path class="st1" d="M788.6,36.3h0.1v0.1v7.2v0.1h-0.1h-7.2h-0.1v-0.1v-7.2v-0.1h0.1H788.6z M788.6,46.3h0.1v0.1v7.2v0.1h-0.1h-7.2
		h-0.1v-0.1v-7.2v-0.1h0.1H788.6z M788.6,56.3h0.1v0.1v7.2v0.1h-0.1h-7.2h-0.1v-0.1v-7.2v-0.1h0.1H788.6z M788.6,66.3h0.1v0.1v7.2
		v0.1h-0.1h-7.2h-0.1v-0.1v-7.2v-0.1h0.1H788.6z M788.6,76.3h0.1v0.1v7.2v0.1h-0.1h-7.2h-0.1v-0.1v-7.2v-0.1h0.1H788.6z M798.6,46.3
		h0.1v0.1v7.2v0.1h-0.1h-7.2h-0.1v-0.1v-7.2v-0.1h0.1H798.6z M808.6,36.3h0.1v0.1v7.2v0.1h-0.1h-7.2h-0.1v-0.1v-7.2v-0.1h0.1H808.6z
		 M818.6,36.3h0.1v0.1v7.2v0.1h-0.1h-7.2h-0.1v-0.1v-7.2v-0.1h0.1H818.6z M828.6,46.3h0.1v0.1v7.2v0.1h-0.1h-7.2h-0.1v-0.1v-7.2
		v-0.1h0.1H828.6z M828.6,56.3h0.1v0.1v7.2v0.1h-0.1h-7.2h-0.1v-0.1v-7.2v-0.1h0.1H828.6z M828.6,66.3h0.1v0.1v7.2v0.1h-0.1h-7.2
		h-0.1v-0.1v-7.2v-0.1h0.1H828.6z M828.6,76.3h0.1v0.1v7.2v0.1h-0.1h-7.2h-0.1v-0.1v-7.2v-0.1h0.1H828.6z"/>
	<path class="st1" d="M848.6,66.3L848.6,66.3l0.1,0.1v7.2v0.1h-0.1h-7.2h-0.1v-0.1v-7.2v-0.1h0.1H848.6z M858.6,36.3L858.6,36.3
		l0.1,0.1v7.2v0.1h-0.1h-7.2h-0.1v-0.1v-7.2v-0.1h0.1H858.6z M858.6,56.3L858.6,56.3l0.1,0.1v7.2v0.1h-0.1h-7.2h-0.1v-0.1v-7.2v-0.1
		h0.1H858.6z M858.6,76.3L858.6,76.3l0.1,0.1v7.2v0.1h-0.1h-7.2h-0.1v-0.1v-7.2v-0.1h0.1H858.6z M868.6,36.3L868.6,36.3l0.1,0.1v7.2
		v0.1h-0.1h-7.2h-0.1v-0.1v-7.2v-0.1h0.1H868.6z M868.6,56.3L868.6,56.3l0.1,0.1v7.2v0.1h-0.1h-7.2h-0.1v-0.1v-7.2v-0.1h0.1H868.6z
		 M868.6,76.3L868.6,76.3l0.1,0.1v7.2v0.1h-0.1h-7.2h-0.1v-0.1v-7.2v-0.1h0.1H868.6z M878.6,36.3L878.6,36.3l0.1,0.1v7.2v0.1h-0.1
		h-7.2h-0.1v-0.1v-7.2v-0.1h0.1H878.6z M878.6,56.3L878.6,56.3l0.1,0.1v7.2v0.1h-0.1h-7.2h-0.1v-0.1v-7.2v-0.1h0.1H878.6z
		 M878.6,76.3L878.6,76.3l0.1,0.1v7.2v0.1h-0.1h-7.2h-0.1v-0.1v-7.2v-0.1h0.1H878.6z M888.6,46.3L888.6,46.3l0.1,0.1v7.2v0.1h-0.1
		h-7.2h-0.1v-0.1v-7.2v-0.1h0.1H888.6z M888.6,56.3L888.6,56.3l0.1,0.1v7.2v0.1h-0.1h-7.2h-0.1v-0.1v-7.2v-0.1h0.1H888.6z
		 M888.6,66.3L888.6,66.3l0.1,0.1v7.2v0.1h-0.1h-7.2h-0.1v-0.1v-7.2v-0.1h0.1H888.6z M888.6,76.3L888.6,76.3l0.1,0.1v7.2v0.1h-0.1
		h-7.2h-0.1v-0.1v-7.2v-0.1h0.1H888.6z"/>
	<path class="st1" d="M908.6,46.3h0.1v0.1v7.2v0.1h-0.1h-7.2h-0.1v-0.1v-7.2v-0.1h0.1H908.6z M908.6,76.3h0.1v0.1v7.2v0.1h-0.1h-7.2
		h-0.1v-0.1v-7.2v-0.1h0.1H908.6z M918.6,36.3h0.1v0.1v7.2v0.1h-0.1h-7.2h-0.1v-0.1v-7.2v-0.1h0.1H918.6z M918.6,56.3h0.1v0.1v7.2
		v0.1h-0.1h-7.2h-0.1v-0.1v-7.2v-0.1h0.1H918.6z M918.6,76.3h0.1v0.1v7.2v0.1h-0.1h-7.2h-0.1v-0.1v-7.2v-0.1h0.1H918.6z M928.6,36.3
		h0.1v0.1v7.2v0.1h-0.1h-7.2h-0.1v-0.1v-7.2v-0.1h0.1H928.6z M928.6,56.3h0.1v0.1v7.2v0.1h-0.1h-7.2h-0.1v-0.1v-7.2v-0.1h0.1H928.6z
		 M928.6,76.3h0.1v0.1v7.2v0.1h-0.1h-7.2h-0.1v-0.1v-7.2v-0.1h0.1H928.6z M938.6,36.3h0.1v0.1v7.2v0.1h-0.1h-7.2h-0.1v-0.1v-7.2
		v-0.1h0.1H938.6z M938.6,56.3h0.1v0.1v7.2v0.1h-0.1h-7.2h-0.1v-0.1v-7.2v-0.1h0.1H938.6z M938.6,76.3h0.1v0.1v7.2v0.1h-0.1h-7.2
		h-0.1v-0.1v-7.2v-0.1h0.1H938.6z M948.6,66.3h0.1v0.1v7.2v0.1h-0.1h-7.2h-0.1v-0.1v-7.2v-0.1h0.1H948.6z"/>
</g>
</svg>
