<?xml version="1.0" encoding="utf-8"?>
<!-- Generator: Adobe Illustrator 28.0.0, SVG Export Plug-In . SVG Version: 6.00 Build 0)  -->
<svg version="1.1" id="b" xmlns="http://www.w3.org/2000/svg" xmlns:xlink="http://www.w3.org/1999/xlink" x="0px" y="0px"
	 viewBox="0 0 1140 115" style="enable-background:new 0 0 1140 115;" xml:space="preserve">
<style type="text/css">
	.st0{enable-background:new    ;}
	.st1{fill:#4493F8;}
</style>
<g id="c">
	<g class="st0">
		<path class="st1" d="M8.6,26.3h0.1v0.1v7.2v0.1H8.6H1.4H1.3v-0.1v-7.2v-0.1h0.1H8.6z M8.6,36.3h0.1v0.1v7.2v0.1H8.6H1.4H1.3v-0.1
			v-7.2v-0.1h0.1H8.6z M8.6,66.3h0.1v0.1v7.2v0.1H8.6H1.4H1.3v-0.1v-7.2v-0.1h0.1H8.6z M18.6,16.3h0.1v0.1v7.2v0.1h-0.1h-7.2h-0.1
			v-0.1v-7.2v-0.1h0.1H18.6z M18.6,46.3h0.1v0.1v7.2v0.1h-0.1h-7.2h-0.1v-0.1v-7.2v-0.1h0.1H18.6z M18.6,76.3h0.1v0.1v7.2v0.1h-0.1
			h-7.2h-0.1v-0.1v-7.2v-0.1h0.1H18.6z M28.6,16.3h0.1v0.1v7.2v0.1h-0.1h-7.2h-0.1v-0.1v-7.2v-0.1h0.1H28.6z M28.6,46.3h0.1v0.1v7.2
			v0.1h-0.1h-7.2h-0.1v-0.1v-7.2v-0.1h0.1H28.6z M28.6,76.3h0.1v0.1v7.2v0.1h-0.1h-7.2h-0.1v-0.1v-7.2v-0.1h0.1H28.6z M38.6,16.3
			h0.1v0.1v7.2v0.1h-0.1h-7.2h-0.1v-0.1v-7.2v-0.1h0.1H38.6z M38.6,46.3h0.1v0.1v7.2v0.1h-0.1h-7.2h-0.1v-0.1v-7.2v-0.1h0.1H38.6z
			 M38.6,76.3h0.1v0.1v7.2v0.1h-0.1h-7.2h-0.1v-0.1v-7.2v-0.1h0.1H38.6z M48.6,26.3h0.1v0.1v7.2v0.1h-0.1h-7.2h-0.1v-0.1v-7.2v-0.1
			h0.1H48.6z M48.6,56.3h0.1v0.1v7.2v0.1h-0.1h-7.2h-0.1v-0.1v-7.2v-0.1h0.1H48.6z M48.6,66.3h0.1v0.1v7.2v0.1h-0.1h-7.2h-0.1v-0.1
			v-7.2v-0.1h0.1H48.6z"/>
		<path class="st1" d="M68.6,46.3h0.1v0.1v7.2v0.1h-0.1h-7.2h-0.1v-0.1v-7.2v-0.1h0.1H68.6z M68.6,56.3h0.1v0.1v7.2v0.1h-0.1h-7.2
			h-0.1v-0.1v-7.2v-0.1h0.1H68.6z M68.6,66.3h0.1v0.1v7.2v0.1h-0.1h-7.2h-0.1v-0.1v-7.2v-0.1h0.1H68.6z M78.6,36.3h0.1v0.1v7.2v0.1
			h-0.1h-7.2h-0.1v-0.1v-7.2v-0.1h0.1H78.6z M78.6,76.3h0.1v0.1v7.2v0.1h-0.1h-7.2h-0.1v-0.1v-7.2v-0.1h0.1H78.6z M88.6,36.3h0.1
			v0.1v7.2v0.1h-0.1h-7.2h-0.1v-0.1v-7.2v-0.1h0.1H88.6z M88.6,76.3h0.1v0.1v7.2v0.1h-0.1h-7.2h-0.1v-0.1v-7.2v-0.1h0.1H88.6z
			 M98.6,36.3h0.1v0.1v7.2v0.1h-0.1h-7.2h-0.1v-0.1v-7.2v-0.1h0.1H98.6z M98.6,76.3h0.1v0.1v7.2v0.1h-0.1h-7.2h-0.1v-0.1v-7.2v-0.1
			h0.1H98.6z M108.6,46.3h0.1v0.1v7.2v0.1h-0.1h-7.2h-0.1v-0.1v-7.2v-0.1h0.1H108.6z M108.6,56.3h0.1v0.1v7.2v0.1h-0.1h-7.2h-0.1
			v-0.1v-7.2v-0.1h0.1H108.6z M108.6,66.3h0.1v0.1v7.2v0.1h-0.1h-7.2h-0.1v-0.1v-7.2v-0.1h0.1H108.6z"/>
		<path class="st1" d="M128.6,46.3h0.1v0.1v7.2v0.1h-0.1h-7.2h-0.1v-0.1v-7.2v-0.1h0.1H128.6z M138.6,26.3h0.1v0.1v7.2v0.1h-0.1
			h-7.2h-0.1v-0.1v-7.2v-0.1h0.1H138.6z M138.6,36.3h0.1v0.1v7.2v0.1h-0.1h-7.2h-0.1v-0.1v-7.2v-0.1h0.1H138.6z M138.6,46.3h0.1v0.1
			v7.2v0.1h-0.1h-7.2h-0.1v-0.1v-7.2v-0.1h0.1H138.6z M138.6,56.3h0.1v0.1v7.2v0.1h-0.1h-7.2h-0.1v-0.1v-7.2v-0.1h0.1H138.6z
			 M138.6,66.3h0.1v0.1v7.2v0.1h-0.1h-7.2h-0.1v-0.1v-7.2v-0.1h0.1H138.6z M138.6,76.3h0.1v0.1v7.2v0.1h-0.1h-7.2h-0.1v-0.1v-7.2
			v-0.1h0.1H138.6z M148.6,16.3h0.1v0.1v7.2v0.1h-0.1h-7.2h-0.1v-0.1v-7.2v-0.1h0.1H148.6z M148.6,46.3h0.1v0.1v7.2v0.1h-0.1h-7.2
			h-0.1v-0.1v-7.2v-0.1h0.1H148.6z M158.6,16.3h0.1v0.1v7.2v0.1h-0.1h-7.2h-0.1v-0.1v-7.2v-0.1h0.1H158.6z M158.6,46.3h0.1v0.1v7.2
			v0.1h-0.1h-7.2h-0.1v-0.1v-7.2v-0.1h0.1H158.6z M168.6,26.3h0.1v0.1v7.2v0.1h-0.1h-7.2h-0.1v-0.1v-7.2v-0.1h0.1H168.6z"/>
		<path class="st1" d="M188.6,36.3h0.1v0.1v7.2v0.1h-0.1h-7.2h-0.1v-0.1v-7.2v-0.1h0.1H188.6z M198.6,16.3h0.1v0.1v7.2v0.1h-0.1
			h-7.2h-0.1v-0.1v-7.2v-0.1h0.1H198.6z M198.6,26.3h0.1v0.1v7.2v0.1h-0.1h-7.2h-0.1v-0.1v-7.2v-0.1h0.1H198.6z M198.6,36.3h0.1v0.1
			v7.2v0.1h-0.1h-7.2h-0.1v-0.1v-7.2v-0.1h0.1H198.6z M198.6,46.3h0.1v0.1v7.2v0.1h-0.1h-7.2h-0.1v-0.1v-7.2v-0.1h0.1H198.6z
			 M198.6,56.3h0.1v0.1v7.2v0.1h-0.1h-7.2h-0.1v-0.1v-7.2v-0.1h0.1H198.6z M198.6,66.3h0.1v0.1v7.2v0.1h-0.1h-7.2h-0.1v-0.1v-7.2
			v-0.1h0.1H198.6z M208.6,36.3h0.1v0.1v7.2v0.1h-0.1h-7.2h-0.1v-0.1v-7.2v-0.1h0.1H208.6z M208.6,76.3h0.1v0.1v7.2v0.1h-0.1h-7.2
			h-0.1v-0.1v-7.2v-0.1h0.1H208.6z M218.6,36.3h0.1v0.1v7.2v0.1h-0.1h-7.2h-0.1v-0.1v-7.2v-0.1h0.1H218.6z M218.6,76.3h0.1v0.1v7.2
			v0.1h-0.1h-7.2h-0.1v-0.1v-7.2v-0.1h0.1H218.6z M228.6,66.3h0.1v0.1v7.2v0.1h-0.1h-7.2h-0.1v-0.1v-7.2v-0.1h0.1H228.6z"/>
		<path class="st1" d="M248.6,36.3h0.1v0.1v7.2v0.1h-0.1h-7.2h-0.1v-0.1v-7.2v-0.1h0.1H248.6z M248.6,46.3h0.1v0.1v7.2v0.1h-0.1
			h-7.2h-0.1v-0.1v-7.2v-0.1h0.1H248.6z M248.6,56.3h0.1v0.1v7.2v0.1h-0.1h-7.2h-0.1v-0.1v-7.2v-0.1h0.1H248.6z M248.6,66.3h0.1v0.1
			v7.2v0.1h-0.1h-7.2h-0.1v-0.1v-7.2v-0.1h0.1H248.6z M258.6,76.3h0.1v0.1v7.2v0.1h-0.1h-7.2h-0.1v-0.1v-7.2v-0.1h0.1H258.6z
			 M268.6,56.3h0.1v0.1v7.2v0.1h-0.1h-7.2h-0.1v-0.1v-7.2v-0.1h0.1H268.6z M268.6,66.3h0.1v0.1v7.2v0.1h-0.1h-7.2h-0.1v-0.1v-7.2
			v-0.1h0.1H268.6z M278.6,76.3h0.1v0.1v7.2v0.1h-0.1h-7.2h-0.1v-0.1v-7.2v-0.1h0.1H278.6z M288.6,36.3h0.1v0.1v7.2v0.1h-0.1h-7.2
			h-0.1v-0.1v-7.2v-0.1h0.1H288.6z M288.6,46.3h0.1v0.1v7.2v0.1h-0.1h-7.2h-0.1v-0.1v-7.2v-0.1h0.1H288.6z M288.6,56.3h0.1v0.1v7.2
			v0.1h-0.1h-7.2h-0.1v-0.1v-7.2v-0.1h0.1H288.6z M288.6,66.3h0.1v0.1v7.2v0.1h-0.1h-7.2h-0.1v-0.1v-7.2v-0.1h0.1H288.6z"/>
		<path class="st1" d="M308.6,66.3h0.1v0.1v7.2v0.1h-0.1h-7.2h-0.1v-0.1v-7.2v-0.1h0.1H308.6z M318.6,36.3h0.1v0.1v7.2v0.1h-0.1
			h-7.2h-0.1v-0.1v-7.2v-0.1h0.1H318.6z M318.6,56.3h0.1v0.1v7.2v0.1h-0.1h-7.2h-0.1v-0.1v-7.2v-0.1h0.1H318.6z M318.6,76.3h0.1v0.1
			v7.2v0.1h-0.1h-7.2h-0.1v-0.1v-7.2v-0.1h0.1H318.6z M328.6,36.3h0.1v0.1v7.2v0.1h-0.1h-7.2h-0.1v-0.1v-7.2v-0.1h0.1H328.6z
			 M328.6,56.3h0.1v0.1v7.2v0.1h-0.1h-7.2h-0.1v-0.1v-7.2v-0.1h0.1H328.6z M328.6,76.3h0.1v0.1v7.2v0.1h-0.1h-7.2h-0.1v-0.1v-7.2
			v-0.1h0.1H328.6z M338.6,36.3h0.1v0.1v7.2v0.1h-0.1h-7.2h-0.1v-0.1v-7.2v-0.1h0.1H338.6z M338.6,56.3h0.1v0.1v7.2v0.1h-0.1h-7.2
			h-0.1v-0.1v-7.2v-0.1h0.1H338.6z M338.6,76.3h0.1v0.1v7.2v0.1h-0.1h-7.2h-0.1v-0.1v-7.2v-0.1h0.1H338.6z M348.6,46.3h0.1v0.1v7.2
			v0.1h-0.1h-7.2h-0.1v-0.1v-7.2v-0.1h0.1H348.6z M348.6,56.3h0.1v0.1v7.2v0.1h-0.1h-7.2h-0.1v-0.1v-7.2v-0.1h0.1H348.6z
			 M348.6,66.3h0.1v0.1v7.2v0.1h-0.1h-7.2h-0.1v-0.1v-7.2v-0.1h0.1H348.6z M348.6,76.3h0.1v0.1v7.2v0.1h-0.1h-7.2h-0.1v-0.1v-7.2
			v-0.1h0.1H348.6z"/>
		<path class="st1" d="M368.6,36.3h0.1v0.1v7.2v0.1h-0.1h-7.2h-0.1v-0.1v-7.2v-0.1h0.1H368.6z M368.6,46.3h0.1v0.1v7.2v0.1h-0.1
			h-7.2h-0.1v-0.1v-7.2v-0.1h0.1H368.6z M368.6,56.3h0.1v0.1v7.2v0.1h-0.1h-7.2h-0.1v-0.1v-7.2v-0.1h0.1H368.6z M368.6,66.3h0.1v0.1
			v7.2v0.1h-0.1h-7.2h-0.1v-0.1v-7.2v-0.1h0.1H368.6z M368.6,76.3h0.1v0.1v7.2v0.1h-0.1h-7.2h-0.1v-0.1v-7.2v-0.1h0.1H368.6z
			 M378.6,46.3h0.1v0.1v7.2v0.1h-0.1h-7.2h-0.1v-0.1v-7.2v-0.1h0.1H378.6z M388.6,36.3h0.1v0.1v7.2v0.1h-0.1h-7.2h-0.1v-0.1v-7.2
			v-0.1h0.1H388.6z M398.6,36.3h0.1v0.1v7.2v0.1h-0.1h-7.2h-0.1v-0.1v-7.2v-0.1h0.1H398.6z M408.6,46.3h0.1v0.1v7.2v0.1h-0.1h-7.2
			h-0.1v-0.1v-7.2v-0.1h0.1H408.6z"/>
		<path class="st1" d="M428.6,46.3h0.1v0.1v7.2v0.1h-0.1h-7.2h-0.1v-0.1v-7.2v-0.1h0.1H428.6z M428.6,56.3h0.1v0.1v7.2v0.1h-0.1
			h-7.2h-0.1v-0.1v-7.2v-0.1h0.1H428.6z M428.6,66.3h0.1v0.1v7.2v0.1h-0.1h-7.2h-0.1v-0.1v-7.2v-0.1h0.1H428.6z M438.6,36.3h0.1v0.1
			v7.2v0.1h-0.1h-7.2h-0.1v-0.1v-7.2v-0.1h0.1H438.6z M438.6,56.3h0.1v0.1v7.2v0.1h-0.1h-7.2h-0.1v-0.1v-7.2v-0.1h0.1H438.6z
			 M438.6,76.3h0.1v0.1v7.2v0.1h-0.1h-7.2h-0.1v-0.1v-7.2v-0.1h0.1H438.6z M448.6,36.3h0.1v0.1v7.2v0.1h-0.1h-7.2h-0.1v-0.1v-7.2
			v-0.1h0.1H448.6z M448.6,56.3h0.1v0.1v7.2v0.1h-0.1h-7.2h-0.1v-0.1v-7.2v-0.1h0.1H448.6z M448.6,76.3h0.1v0.1v7.2v0.1h-0.1h-7.2
			h-0.1v-0.1v-7.2v-0.1h0.1H448.6z M458.6,36.3h0.1v0.1v7.2v0.1h-0.1h-7.2h-0.1v-0.1v-7.2v-0.1h0.1H458.6z M458.6,56.3h0.1v0.1v7.2
			v0.1h-0.1h-7.2h-0.1v-0.1v-7.2v-0.1h0.1H458.6z M458.6,76.3h0.1v0.1v7.2v0.1h-0.1h-7.2h-0.1v-0.1v-7.2v-0.1h0.1H458.6z
			 M468.6,46.3h0.1v0.1v7.2v0.1h-0.1h-7.2h-0.1v-0.1v-7.2v-0.1h0.1H468.6z M468.6,56.3h0.1v0.1v7.2v0.1h-0.1h-7.2h-0.1v-0.1v-7.2
			v-0.1h0.1H468.6z"/>
		<path class="st1" d="M548.6,16.3h0.1v0.1v7.2v0.1h-0.1h-7.2h-0.1v-0.1v-7.2v-0.1h0.1H548.6z M548.6,26.3h0.1v0.1v7.2v0.1h-0.1
			h-7.2h-0.1v-0.1v-7.2v-0.1h0.1H548.6z M548.6,36.3h0.1v0.1v7.2v0.1h-0.1h-7.2h-0.1v-0.1v-7.2v-0.1h0.1H548.6z M548.6,46.3h0.1v0.1
			v7.2v0.1h-0.1h-7.2h-0.1v-0.1v-7.2v-0.1h0.1H548.6z M548.6,56.3h0.1v0.1v7.2v0.1h-0.1h-7.2h-0.1v-0.1v-7.2v-0.1h0.1H548.6z
			 M548.6,66.3h0.1v0.1v7.2v0.1h-0.1h-7.2h-0.1v-0.1v-7.2v-0.1h0.1H548.6z M548.6,76.3h0.1v0.1v7.2v0.1h-0.1h-7.2h-0.1v-0.1v-7.2
			v-0.1h0.1H548.6z M558.6,16.3h0.1v0.1v7.2v0.1h-0.1h-7.2h-0.1v-0.1v-7.2v-0.1h0.1H558.6z M558.6,46.3h0.1v0.1v7.2v0.1h-0.1h-7.2
			h-0.1v-0.1v-7.2v-0.1h0.1H558.6z M568.6,16.3h0.1v0.1v7.2v0.1h-0.1h-7.2h-0.1v-0.1v-7.2v-0.1h0.1H568.6z M568.6,46.3h0.1v0.1v7.2
			v0.1h-0.1h-7.2h-0.1v-0.1v-7.2v-0.1h0.1H568.6z M568.6,56.3h0.1v0.1v7.2v0.1h-0.1h-7.2h-0.1v-0.1v-7.2v-0.1h0.1H568.6z
			 M578.6,16.3L578.6,16.3l0.1,0.1v7.2v0.1h-0.1h-7.2h-0.1v-0.1v-7.2v-0.1h0.1H578.6z M578.6,46.3L578.6,46.3l0.1,0.1v7.2v0.1h-0.1
			h-7.2h-0.1v-0.1v-7.2v-0.1h0.1H578.6z M578.6,66.3L578.6,66.3l0.1,0.1v7.2v0.1h-0.1h-7.2h-0.1v-0.1v-7.2v-0.1h0.1H578.6z
			 M588.6,26.3L588.6,26.3l0.1,0.1v7.2v0.1h-0.1h-7.2h-0.1v-0.1v-7.2v-0.1h0.1H588.6z M588.6,36.3L588.6,36.3l0.1,0.1v7.2v0.1h-0.1
			h-7.2h-0.1v-0.1v-7.2v-0.1h0.1H588.6z M588.6,76.3L588.6,76.3l0.1,0.1v7.2v0.1h-0.1h-7.2h-0.1v-0.1v-7.2v-0.1h0.1H588.6z"/>
		<path class="st1" d="M608.6,46.3h0.1v0.1v7.2v0.1h-0.1h-7.2h-0.1v-0.1v-7.2v-0.1h0.1H608.6z M608.6,56.3h0.1v0.1v7.2v0.1h-0.1
			h-7.2h-0.1v-0.1v-7.2v-0.1h0.1H608.6z M608.6,66.3h0.1v0.1v7.2v0.1h-0.1h-7.2h-0.1v-0.1v-7.2v-0.1h0.1H608.6z M618.6,36.3h0.1v0.1
			v7.2v0.1h-0.1h-7.2h-0.1v-0.1v-7.2v-0.1h0.1H618.6z M618.6,56.3h0.1v0.1v7.2v0.1h-0.1h-7.2h-0.1v-0.1v-7.2v-0.1h0.1H618.6z
			 M618.6,76.3h0.1v0.1v7.2v0.1h-0.1h-7.2h-0.1v-0.1v-7.2v-0.1h0.1H618.6z M628.6,36.3h0.1v0.1v7.2v0.1h-0.1h-7.2h-0.1v-0.1v-7.2
			v-0.1h0.1H628.6z M628.6,56.3h0.1v0.1v7.2v0.1h-0.1h-7.2h-0.1v-0.1v-7.2v-0.1h0.1H628.6z M628.6,76.3h0.1v0.1v7.2v0.1h-0.1h-7.2
			h-0.1v-0.1v-7.2v-0.1h0.1H628.6z M638.6,36.3h0.1v0.1v7.2v0.1h-0.1h-7.2h-0.1v-0.1v-7.2v-0.1h0.1H638.6z M638.6,56.3h0.1v0.1v7.2
			v0.1h-0.1h-7.2h-0.1v-0.1v-7.2v-0.1h0.1H638.6z M638.6,76.3h0.1v0.1v7.2v0.1h-0.1h-7.2h-0.1v-0.1v-7.2v-0.1h0.1H638.6z
			 M648.6,46.3h0.1v0.1v7.2v0.1h-0.1h-7.2h-0.1v-0.1v-7.2v-0.1h0.1H648.6z M648.6,56.3h0.1v0.1v7.2v0.1h-0.1h-7.2h-0.1v-0.1v-7.2
			v-0.1h0.1H648.6z"/>
		<path class="st1" d="M678.6,16.3L678.6,16.3l0.1,0.1v7.2v0.1h-0.1h-7.2h-0.1v-0.1v-7.2v-0.1h0.1H678.6z M678.6,76.3L678.6,76.3
			l0.1,0.1v7.2v0.1h-0.1h-7.2h-0.1v-0.1v-7.2v-0.1h0.1H678.6z M688.6,16.3L688.6,16.3l0.1,0.1v7.2v0.1h-0.1h-7.2h-0.1v-0.1v-7.2
			v-0.1h0.1H688.6z M688.6,26.3L688.6,26.3l0.1,0.1v7.2v0.1h-0.1h-7.2h-0.1v-0.1v-7.2v-0.1h0.1H688.6z M688.6,36.3L688.6,36.3
			l0.1,0.1v7.2v0.1h-0.1h-7.2h-0.1v-0.1v-7.2v-0.1h0.1H688.6z M688.6,46.3L688.6,46.3l0.1,0.1v7.2v0.1h-0.1h-7.2h-0.1v-0.1v-7.2
			v-0.1h0.1H688.6z M688.6,56.3L688.6,56.3l0.1,0.1v7.2v0.1h-0.1h-7.2h-0.1v-0.1v-7.2v-0.1h0.1H688.6z M688.6,66.3L688.6,66.3
			l0.1,0.1v7.2v0.1h-0.1h-7.2h-0.1v-0.1v-7.2v-0.1h0.1H688.6z M688.6,76.3L688.6,76.3l0.1,0.1v7.2v0.1h-0.1h-7.2h-0.1v-0.1v-7.2
			v-0.1h0.1H688.6z M698.6,76.3L698.6,76.3l0.1,0.1v7.2v0.1h-0.1h-7.2h-0.1v-0.1v-7.2v-0.1h0.1H698.6z"/>
		<path class="st1" d="M728.6,46.3L728.6,46.3l0.1,0.1v7.2v0.1h-0.1h-7.2h-0.1v-0.1v-7.2v-0.1h0.1H728.6z M728.6,56.3L728.6,56.3
			l0.1,0.1v7.2v0.1h-0.1h-7.2h-0.1v-0.1v-7.2v-0.1h0.1H728.6z M728.6,66.3L728.6,66.3l0.1,0.1v7.2v0.1h-0.1h-7.2h-0.1v-0.1v-7.2
			v-0.1h0.1H728.6z M738.6,36.3L738.6,36.3l0.1,0.1v7.2v0.1h-0.1h-7.2h-0.1v-0.1v-7.2v-0.1h0.1H738.6z M738.6,56.3L738.6,56.3
			l0.1,0.1v7.2v0.1h-0.1h-7.2h-0.1v-0.1v-7.2v-0.1h0.1H738.6z M738.6,76.3L738.6,76.3l0.1,0.1v7.2v0.1h-0.1h-7.2h-0.1v-0.1v-7.2
			v-0.1h0.1H738.6z M748.6,36.3L748.6,36.3l0.1,0.1v7.2v0.1h-0.1h-7.2h-0.1v-0.1v-7.2v-0.1h0.1H748.6z M748.6,56.3L748.6,56.3
			l0.1,0.1v7.2v0.1h-0.1h-7.2h-0.1v-0.1v-7.2v-0.1h0.1H748.6z M748.6,76.3L748.6,76.3l0.1,0.1v7.2v0.1h-0.1h-7.2h-0.1v-0.1v-7.2
			v-0.1h0.1H748.6z M758.6,36.3L758.6,36.3l0.1,0.1v7.2v0.1h-0.1h-7.2h-0.1v-0.1v-7.2v-0.1h0.1H758.6z M758.6,56.3L758.6,56.3
			l0.1,0.1v7.2v0.1h-0.1h-7.2h-0.1v-0.1v-7.2v-0.1h0.1H758.6z M758.6,76.3L758.6,76.3l0.1,0.1v7.2v0.1h-0.1h-7.2h-0.1v-0.1v-7.2
			v-0.1h0.1H758.6z M768.6,46.3L768.6,46.3l0.1,0.1v7.2v0.1h-0.1h-7.2h-0.1v-0.1v-7.2v-0.1h0.1H768.6z M768.6,56.3L768.6,56.3
			l0.1,0.1v7.2v0.1h-0.1h-7.2h-0.1v-0.1v-7.2v-0.1h0.1H768.6z"/>
		<path class="st1" d="M788.6,66.3h0.1v0.1v7.2v0.1h-0.1h-7.2h-0.1v-0.1v-7.2v-0.1h0.1H788.6z M798.6,36.3h0.1v0.1v7.2v0.1h-0.1
			h-7.2h-0.1v-0.1v-7.2v-0.1h0.1H798.6z M798.6,56.3h0.1v0.1v7.2v0.1h-0.1h-7.2h-0.1v-0.1v-7.2v-0.1h0.1H798.6z M798.6,76.3h0.1v0.1
			v7.2v0.1h-0.1h-7.2h-0.1v-0.1v-7.2v-0.1h0.1H798.6z M808.6,36.3h0.1v0.1v7.2v0.1h-0.1h-7.2h-0.1v-0.1v-7.2v-0.1h0.1H808.6z
			 M808.6,56.3h0.1v0.1v7.2v0.1h-0.1h-7.2h-0.1v-0.1v-7.2v-0.1h0.1H808.6z M808.6,76.3h0.1v0.1v7.2v0.1h-0.1h-7.2h-0.1v-0.1v-7.2
			v-0.1h0.1H808.6z M818.6,36.3h0.1v0.1v7.2v0.1h-0.1h-7.2h-0.1v-0.1v-7.2v-0.1h0.1H818.6z M818.6,56.3h0.1v0.1v7.2v0.1h-0.1h-7.2
			h-0.1v-0.1v-7.2v-0.1h0.1H818.6z M818.6,76.3h0.1v0.1v7.2v0.1h-0.1h-7.2h-0.1v-0.1v-7.2v-0.1h0.1H818.6z M828.6,46.3h0.1v0.1v7.2
			v0.1h-0.1h-7.2h-0.1v-0.1v-7.2v-0.1h0.1H828.6z M828.6,56.3h0.1v0.1v7.2v0.1h-0.1h-7.2h-0.1v-0.1v-7.2v-0.1h0.1H828.6z
			 M828.6,66.3h0.1v0.1v7.2v0.1h-0.1h-7.2h-0.1v-0.1v-7.2v-0.1h0.1H828.6z M828.6,76.3h0.1v0.1v7.2v0.1h-0.1h-7.2h-0.1v-0.1v-7.2
			v-0.1h0.1H828.6z"/>
		<path class="st1" d="M848.6,46.3L848.6,46.3l0.1,0.1v7.2v0.1h-0.1h-7.2h-0.1v-0.1v-7.2v-0.1h0.1H848.6z M848.6,76.3L848.6,76.3
			l0.1,0.1v7.2v0.1h-0.1h-7.2h-0.1v-0.1v-7.2v-0.1h0.1H848.6z M858.6,36.3L858.6,36.3l0.1,0.1v7.2v0.1h-0.1h-7.2h-0.1v-0.1v-7.2
			v-0.1h0.1H858.6z M858.6,56.3L858.6,56.3l0.1,0.1v7.2v0.1h-0.1h-7.2h-0.1v-0.1v-7.2v-0.1h0.1H858.6z M858.6,76.3L858.6,76.3
			l0.1,0.1v7.2v0.1h-0.1h-7.2h-0.1v-0.1v-7.2v-0.1h0.1H858.6z M868.6,36.3L868.6,36.3l0.1,0.1v7.2v0.1h-0.1h-7.2h-0.1v-0.1v-7.2
			v-0.1h0.1H868.6z M868.6,56.3L868.6,56.3l0.1,0.1v7.2v0.1h-0.1h-7.2h-0.1v-0.1v-7.2v-0.1h0.1H868.6z M868.6,76.3L868.6,76.3
			l0.1,0.1v7.2v0.1h-0.1h-7.2h-0.1v-0.1v-7.2v-0.1h0.1H868.6z M878.6,36.3L878.6,36.3l0.1,0.1v7.2v0.1h-0.1h-7.2h-0.1v-0.1v-7.2
			v-0.1h0.1H878.6z M878.6,56.3L878.6,56.3l0.1,0.1v7.2v0.1h-0.1h-7.2h-0.1v-0.1v-7.2v-0.1h0.1H878.6z M878.6,76.3L878.6,76.3
			l0.1,0.1v7.2v0.1h-0.1h-7.2h-0.1v-0.1v-7.2v-0.1h0.1H878.6z M888.6,66.3L888.6,66.3l0.1,0.1v7.2v0.1h-0.1h-7.2h-0.1v-0.1v-7.2
			v-0.1h0.1H888.6z"/>
		<path class="st1" d="M908.6,46.3h0.1v0.1v7.2v0.1h-0.1h-7.2h-0.1v-0.1v-7.2v-0.1h0.1H908.6z M908.6,56.3h0.1v0.1v7.2v0.1h-0.1
			h-7.2h-0.1v-0.1v-7.2v-0.1h0.1H908.6z M908.6,66.3h0.1v0.1v7.2v0.1h-0.1h-7.2h-0.1v-0.1v-7.2v-0.1h0.1H908.6z M918.6,36.3h0.1v0.1
			v7.2v0.1h-0.1h-7.2h-0.1v-0.1v-7.2v-0.1h0.1H918.6z M918.6,56.3h0.1v0.1v7.2v0.1h-0.1h-7.2h-0.1v-0.1v-7.2v-0.1h0.1H918.6z
			 M918.6,76.3h0.1v0.1v7.2v0.1h-0.1h-7.2h-0.1v-0.1v-7.2v-0.1h0.1H918.6z M928.6,36.3h0.1v0.1v7.2v0.1h-0.1h-7.2h-0.1v-0.1v-7.2
			v-0.1h0.1H928.6z M928.6,56.3h0.1v0.1v7.2v0.1h-0.1h-7.2h-0.1v-0.1v-7.2v-0.1h0.1H928.6z M928.6,76.3h0.1v0.1v7.2v0.1h-0.1h-7.2
			h-0.1v-0.1v-7.2v-0.1h0.1H928.6z M938.6,36.3h0.1v0.1v7.2v0.1h-0.1h-7.2h-0.1v-0.1v-7.2v-0.1h0.1H938.6z M938.6,56.3h0.1v0.1v7.2
			v0.1h-0.1h-7.2h-0.1v-0.1v-7.2v-0.1h0.1H938.6z M938.6,76.3h0.1v0.1v7.2v0.1h-0.1h-7.2h-0.1v-0.1v-7.2v-0.1h0.1H938.6z
			 M948.6,46.3h0.1v0.1v7.2v0.1h-0.1h-7.2h-0.1v-0.1v-7.2v-0.1h0.1H948.6z M948.6,56.3h0.1v0.1v7.2v0.1h-0.1h-7.2h-0.1v-0.1v-7.2
			v-0.1h0.1H948.6z"/>
		<path class="st1" d="M968.6,46.3h0.1v0.1v7.2v0.1h-0.1h-7.2h-0.1v-0.1v-7.2v-0.1h0.1H968.6z M968.6,76.3h0.1v0.1v7.2v0.1h-0.1
			h-7.2h-0.1v-0.1v-7.2v-0.1h0.1H968.6z M978.6,36.3h0.1v0.1v7.2v0.1h-0.1h-7.2h-0.1v-0.1v-7.2v-0.1h0.1H978.6z M978.6,56.3h0.1v0.1
			v7.2v0.1h-0.1h-7.2h-0.1v-0.1v-7.2v-0.1h0.1H978.6z M978.6,76.3h0.1v0.1v7.2v0.1h-0.1h-7.2h-0.1v-0.1v-7.2v-0.1h0.1H978.6z
			 M988.6,36.3h0.1v0.1v7.2v0.1h-0.1h-7.2h-0.1v-0.1v-7.2v-0.1h0.1H988.6z M988.6,56.3h0.1v0.1v7.2v0.1h-0.1h-7.2h-0.1v-0.1v-7.2
			v-0.1h0.1H988.6z M988.6,76.3h0.1v0.1v7.2v0.1h-0.1h-7.2h-0.1v-0.1v-7.2v-0.1h0.1H988.6z M998.6,36.3h0.1v0.1v7.2v0.1h-0.1h-7.2
			h-0.1v-0.1v-7.2v-0.1h0.1H998.6z M998.6,56.3h0.1v0.1v7.2v0.1h-0.1h-7.2h-0.1v-0.1v-7.2v-0.1h0.1H998.6z M998.6,76.3h0.1v0.1v7.2
			v0.1h-0.1h-7.2h-0.1v-0.1v-7.2v-0.1h0.1H998.6z M1008.6,66.3h0.1v0.1v7.2v0.1h-0.1h-7.2h-0.1v-0.1v-7.2v-0.1h0.1H1008.6z"/>
		<path class="st1" d="M1098.6,16.3h0.1v0.1v7.2v0.1h-0.1h-7.2h-0.1v-0.1v-7.2v-0.1h0.1H1098.6z M1098.6,76.3h0.1v0.1v7.2v0.1h-0.1
			h-7.2h-0.1v-0.1v-7.2v-0.1h0.1H1098.6z M1108.6,26.3h0.1v0.1v7.2v0.1h-0.1h-7.2h-0.1v-0.1v-7.2v-0.1h0.1H1108.6z M1108.6,66.3h0.1
			v0.1v7.2v0.1h-0.1h-7.2h-0.1v-0.1v-7.2v-0.1h0.1H1108.6z M1118.6,36.3h0.1v0.1v7.2v0.1h-0.1h-7.2h-0.1v-0.1v-7.2v-0.1h0.1H1118.6z
			 M1118.6,56.3h0.1v0.1v7.2v0.1h-0.1h-7.2h-0.1v-0.1v-7.2v-0.1h0.1H1118.6z M1128.6,46.3h0.1v0.1v7.2v0.1h-0.1h-7.2h-0.1v-0.1v-7.2
			v-0.1h0.1H1128.6z"/>
	</g>
</g>
</svg>
